<svg width="80" height="31" viewBox="0 0 80 31" fill="none" xmlns="http://www.w3.org/2000/svg">
<path d="M18.0039 27.9297L17.4227 27.1159L17.4172 27.1199L18.0039 27.9297ZM17.8281 15.4492L18.2472 14.5413L18.2407 14.5383L18.2343 14.5354L17.8281 15.4492ZM17.0469 15.1367L16.6365 14.2248L14.5128 15.1805L16.6682 16.0623L17.0469 15.1367ZM17.4375 14.9609L17.8479 15.8729L17.894 15.8521L17.9378 15.8268L17.4375 14.9609ZM17.5352 2.94922L18.2027 2.20459L18.1937 2.19664L17.5352 2.94922ZM3.88281 2.94922L3.22426 2.19659L3.21527 2.20465L3.88281 2.94922ZM4 14.9609L3.49972 15.8268L3.54351 15.8521L3.58964 15.8729L4 14.9609ZM4.39062 15.1367L4.76926 16.0623L6.92473 15.1805L4.80099 14.2248L4.39062 15.1367ZM3.60938 15.4492L3.20324 14.5354L3.19676 14.5383L3.19032 14.5413L3.60938 15.4492ZM3.41406 27.9297L4.00077 27.1199L3.9953 27.116L3.41406 27.9297ZM13.9414 7.92969L13.0795 8.43671L13.0811 8.43949L13.9414 7.92969ZM13.9414 11.1328L14.8044 11.638L14.8058 11.6357L13.9414 11.1328ZM7.51562 11.1328L8.37315 10.6183L8.36891 10.6114L7.51562 11.1328ZM7.51562 7.92969L8.38002 8.43261L8.38492 8.42399L7.51562 7.92969ZM13.9414 19.5703L14.8097 19.0742L14.8083 19.0718L13.9414 19.5703ZM13.9414 22.7734L13.0811 22.2636L13.0795 22.2664L13.9414 22.7734ZM7.51562 22.7734L8.38496 22.2791L8.37997 22.2705L7.51562 22.7734ZM7.51562 19.5703L8.37997 20.0732L8.38392 20.0664L8.38777 20.0596L7.51562 19.5703ZM10.7188 17.9492L10.8868 16.9634L10.7197 16.935L10.5526 16.9631L10.7188 17.9492ZM18.5851 28.7434C20.834 27.1371 21.875 24.5785 21.875 21.3867H19.875C19.875 24.1325 19.002 25.9879 17.4227 27.116L18.5851 28.7434ZM21.875 21.3867C21.875 18.1515 20.7597 15.7009 18.2472 14.5413L17.4091 16.3572C18.9591 17.0726 19.875 18.6063 19.875 21.3867H21.875ZM18.2343 14.5354C18.0541 14.4553 17.7773 14.3551 17.4255 14.2112L16.6682 16.0623C17.1758 16.2699 17.2506 16.2869 17.422 16.363L18.2343 14.5354ZM17.4572 16.0486L17.8479 15.8729L17.0271 14.049L16.6365 14.2248L17.4572 16.0486ZM17.9378 15.8268C20.1012 14.5768 21.1133 12.3001 21.1133 9.31641H19.1133C19.1133 11.8405 18.2894 13.3138 16.9372 14.0951L17.9378 15.8268ZM21.1133 9.31641C21.1133 6.34737 20.1477 3.94847 18.2027 2.20465L16.8676 3.69379C18.321 4.99684 19.1133 6.81669 19.1133 9.31641H21.1133ZM18.1937 2.19664C16.2512 0.496966 13.7316 -0.296875 10.7383 -0.296875V1.70312C13.37 1.70312 15.3816 2.39366 16.8767 3.7018L18.1937 2.19664ZM10.7383 -0.296875C7.70993 -0.296875 5.16921 0.49485 3.22431 2.19664L4.54132 3.7018C6.03391 2.39577 8.0635 1.70312 10.7383 1.70312V-0.296875ZM3.21527 2.20465C1.26547 3.95274 0.324219 6.37439 0.324219 9.31641H2.32422C2.32422 6.82874 3.10172 4.99257 4.55036 3.69379L3.21527 2.20465ZM0.324219 9.31641C0.324219 12.3001 1.33627 14.5768 3.49972 15.8268L4.50028 14.0951C3.1481 13.3138 2.32422 11.8405 2.32422 9.31641H0.324219ZM3.58964 15.8729L3.98026 16.0486L4.80099 14.2248L4.41036 14.049L3.58964 15.8729ZM4.01199 14.2112C3.66019 14.3551 3.38342 14.4553 3.20324 14.5354L4.01551 16.363C4.18689 16.2869 4.26169 16.2699 4.76926 16.0623L4.01199 14.2112ZM3.19032 14.5413C0.677811 15.7009 -0.4375 18.1515 -0.4375 21.3867H1.5625C1.5625 18.6063 2.47844 17.0726 4.02843 16.3572L3.19032 14.5413ZM-0.4375 21.3867C-0.4375 24.5721 0.579999 27.1343 2.83282 28.7434L3.9953 27.116C2.42 25.9907 1.5625 24.1388 1.5625 21.3867H-0.4375ZM2.82737 28.7395C4.95171 30.2786 7.59416 31 10.6992 31V29C7.90584 29 5.70454 28.3543 4.00076 27.1199L2.82737 28.7395ZM10.6992 31C13.823 31 16.4657 30.2789 18.5906 28.7395L17.4172 27.1199C15.714 28.3539 13.513 29 10.6992 29V31ZM13.0811 8.43949C13.5182 9.17699 13.5229 9.86367 13.0771 10.6299L14.8058 11.6357C15.6099 10.2535 15.6147 8.79176 14.8017 7.41989L13.0811 8.43949ZM13.0784 10.6276C12.8717 10.9808 12.2643 11.4414 10.7188 11.4414V13.4414C12.5716 13.4414 14.0737 12.8864 14.8044 11.638L13.0784 10.6276ZM10.7188 11.4414C9.19275 11.4414 8.58529 10.9719 8.37312 10.6183L6.65813 11.6473C7.38346 12.8562 8.84631 13.4414 10.7188 13.4414V11.4414ZM8.36891 10.6114C8.13071 10.2216 8.03805 9.86935 8.03954 9.54314C8.04104 9.21382 8.13898 8.84679 8.37997 8.43258L6.65128 7.42679C6.26727 8.08681 6.04294 8.79399 6.03956 9.53401C6.03617 10.2771 6.256 10.9893 6.66234 11.6543L8.36891 10.6114ZM8.38492 8.42399C8.73544 7.80755 9.45099 7.32812 10.7188 7.32812V5.32812C8.90057 5.32812 7.42863 6.05963 6.64633 7.43538L8.38492 8.42399ZM10.7188 7.32812C11.9823 7.32812 12.7082 7.80555 13.0795 8.43671L14.8033 7.42267C14.0027 6.06163 12.5412 5.32812 10.7188 5.32812V7.32812ZM13.0732 20.0665C13.3157 20.4909 13.4102 20.8586 13.4102 21.1865C13.4102 21.5128 13.3167 21.866 13.0811 22.2636L14.8017 23.2832C15.1911 22.6262 15.4102 21.9247 15.4102 21.1865C15.4102 20.45 15.1921 19.7435 14.8096 19.0742L13.0732 20.0665ZM13.0795 22.2664C12.7082 22.8976 11.9823 23.375 10.7188 23.375V25.375C12.5412 25.375 14.0027 24.6415 14.8033 23.2805L13.0795 22.2664ZM10.7188 23.375C9.45099 23.375 8.73544 22.8956 8.38492 22.2791L6.64633 23.2677C7.42863 24.6435 8.90057 25.375 10.7188 25.375V23.375ZM8.37997 22.2705C8.14082 21.8595 8.04688 21.499 8.04688 21.1719C8.04688 20.8448 8.14082 20.4842 8.37997 20.0732L6.65128 19.0674C6.26543 19.7306 6.04688 20.4345 6.04688 21.1719C6.04688 21.9092 6.26543 22.6132 6.65128 23.2763L8.37997 22.2705ZM8.38777 20.0596C8.6017 19.6782 9.20764 19.218 10.8849 18.9353L10.5526 16.9631C8.7533 17.2664 7.32799 17.8609 6.64348 19.0811L8.38777 20.0596ZM10.5507 18.935C12.208 19.2175 12.8611 19.6976 13.0745 20.0688L14.8083 19.0718C14.1233 17.8805 12.667 17.2669 10.8868 16.9634L10.5507 18.935ZM33.1406 30V31H33.8167L34.0686 30.3725L33.1406 30ZM44 2.94922L44.928 3.32176L45 3.14245V2.94922H44ZM44 0.703125H45V-0.296875H44V0.703125ZM24 0.703125V-0.296875H22.9965L23 0.70661L24 0.703125ZM24.0195 6.30859L23.0195 6.31208L23.023 7.30859H24.0195V6.30859ZM36.4219 6.30859L37.3446 6.69415L37.9235 5.30859H36.4219V6.30859ZM27.3789 27.9492L26.4562 27.5637L26.3808 27.7441L26.379 27.9397L27.3789 27.9492ZM27.3594 30L26.3594 29.9905L26.3498 31H27.3594V30ZM34.0686 30.3725L44.928 3.32176L43.072 2.57667L32.2126 29.6275L34.0686 30.3725ZM45 2.94922V0.703125H43V2.94922H45ZM44 -0.296875H24V1.70312H44V-0.296875ZM23 0.70661L23.0195 6.31208L25.0195 6.30511L25 0.69964L23 0.70661ZM24.0195 7.30859H36.4219V5.30859H24.0195V7.30859ZM35.4992 5.92303L26.4562 27.5637L28.3016 28.3348L37.3446 6.69415L35.4992 5.92303ZM26.379 27.9397L26.3594 29.9905L28.3593 30.0095L28.3789 27.9587L26.379 27.9397ZM27.3594 31H33.1406V29H27.3594V31ZM59.3711 13.1445L60.0782 13.8517L60.0831 13.8467L59.3711 13.1445ZM59.3711 2.59766L60.0782 1.89053L60.0732 1.88562L59.3711 2.59766ZM48.8242 2.59766L48.122 1.88567L48.1171 1.89055L48.8242 2.59766ZM48.8242 13.1641L48.1171 13.8712L48.122 13.876L48.8242 13.1641ZM57.3203 30V31H57.9034L58.1906 30.4926L57.3203 30ZM73.9023 0.703125L74.7726 1.1957L75.6174 -0.296875H73.9023V0.703125ZM68.9609 0.703125V-0.296875H68.3785L68.0912 0.209674L68.9609 0.703125ZM52.3398 30L51.4701 29.5065L50.6228 31H52.3398V30ZM56.6367 5.17578L55.8996 5.85151L55.9004 5.85241L56.6367 5.17578ZM51.4609 10.5664L52.1981 9.89068L52.1965 9.88893L51.4609 10.5664ZM51.4609 5.17578L52.1973 5.85241L52.1981 5.85151L51.4609 5.17578ZM77.3594 28.0664L76.6571 27.3544L76.6523 27.3593L77.3594 28.0664ZM77.3789 17.5977L78.086 16.8905L78.0811 16.8856L77.3789 17.5977ZM66.9102 17.5977L67.6123 18.3097L67.6173 18.3048L66.9102 17.5977ZM66.9102 28.0664L66.2079 28.7784L66.2131 28.7834L66.9102 28.0664ZM74.5859 20.1953L75.3231 19.5196L75.3133 19.5089L75.3032 19.4985L74.5859 20.1953ZM74.5859 25.4492L75.313 26.1358L75.3181 26.1304L75.3231 26.1249L74.5859 25.4492ZM69.5078 25.4492L68.7715 26.1258L68.7809 26.1361L68.7905 26.146L69.5078 25.4492ZM69.5078 20.1953L70.2343 20.8825L70.2354 20.8813L69.5078 20.1953ZM60.0831 13.8467C61.6826 12.225 62.4805 10.211 62.4805 7.87109H60.4805C60.4805 9.71085 59.8721 11.2125 58.6591 12.4423L60.0831 13.8467ZM62.4805 7.87109C62.4805 5.53746 61.7061 3.51849 60.0782 1.89055L58.664 3.30476C59.8876 4.52838 60.4805 6.02504 60.4805 7.87109H62.4805ZM60.0732 1.88562C58.4734 0.308054 56.4607 -0.511719 54.0977 -0.511719V1.48828C55.9534 1.48828 57.4562 2.11382 58.6689 3.30969L60.0732 1.88562ZM54.0977 -0.511719C51.7577 -0.511719 49.7438 0.286124 48.122 1.88569L49.5264 3.30962C50.7562 2.09669 52.2579 1.48828 54.0977 1.48828V-0.511719ZM48.1171 1.89055C46.4892 3.51849 45.7148 5.53746 45.7148 7.87109H47.7148C47.7148 6.02504 48.3077 4.52838 49.5313 3.30476L48.1171 1.89055ZM45.7148 7.87109C45.7148 10.2019 46.4873 12.2414 48.1171 13.8712L49.5313 12.457C48.3096 11.2352 47.7148 9.71999 47.7148 7.87109H45.7148ZM48.122 13.876C49.7438 15.4756 51.7577 16.2734 54.0977 16.2734V14.2734C52.2579 14.2734 50.7562 13.665 49.5264 12.4521L48.122 13.876ZM54.0977 16.2734C56.4615 16.2734 58.4769 15.4529 60.0782 13.8516L58.664 12.4374C57.4528 13.6486 55.9526 14.2734 54.0977 14.2734V16.2734ZM58.1906 30.4926L74.7726 1.1957L73.0321 0.210551L56.45 29.5074L58.1906 30.4926ZM73.9023 -0.296875H68.9609V1.70312H73.9023V-0.296875ZM68.0912 0.209674L51.4701 29.5065L53.2096 30.4935L69.8307 1.19658L68.0912 0.209674ZM52.3398 31H57.3203V29H52.3398V31ZM55.9004 5.85241C56.3906 6.38591 56.6523 7.02161 56.6523 7.85156H58.6523C58.6523 6.53308 58.2109 5.41097 57.373 4.49916L55.9004 5.85241ZM56.6523 7.85156C56.6523 8.72307 56.3961 9.37154 55.9199 9.88978L57.3926 11.243C58.2445 10.316 58.6523 9.16756 58.6523 7.85156H56.6523ZM55.9199 9.88978C55.4688 10.3807 54.8898 10.6406 54.0391 10.6406V12.6406C55.3758 12.6406 56.5156 12.1974 57.3926 11.243L55.9199 9.88978ZM54.0391 10.6406C53.2373 10.6406 52.6355 10.3678 52.1981 9.89068L50.7238 11.2421C51.5755 12.1713 52.7315 12.6406 54.0391 12.6406V10.6406ZM52.1965 9.88893C51.6957 9.34523 51.4453 8.7138 51.4453 7.85156H49.4453C49.4453 9.17683 49.859 10.3032 50.7254 11.2439L52.1965 9.88893ZM51.4453 7.85156C51.4453 7.02161 51.707 6.38591 52.1973 5.85241L50.7246 4.49916C49.8867 5.41097 49.4453 6.53308 49.4453 7.85156H51.4453ZM52.1981 5.85151C52.6374 5.3723 53.2403 5.10156 54.0195 5.10156V3.10156C52.7284 3.10156 51.5736 3.57301 50.7238 4.50006L52.1981 5.85151ZM54.0195 5.10156C54.8665 5.10156 55.4659 5.37846 55.8996 5.85151L57.3739 4.50006C56.5184 3.56685 55.3601 3.10156 54.0195 3.10156V5.10156ZM78.0616 28.7784C79.6942 27.1682 80.4688 25.1462 80.4688 22.832H78.4688C78.4688 24.6585 77.8761 26.1522 76.6572 27.3544L78.0616 28.7784ZM80.4688 22.832C80.4688 20.4955 79.673 18.4775 78.086 16.8905L76.6718 18.3048C77.8582 19.4912 78.4688 20.9888 78.4688 22.832H80.4688ZM78.0811 16.8856C76.4832 15.31 74.4713 14.4883 72.1445 14.4883V16.4883C73.9584 16.4883 75.4621 17.1119 76.6768 18.3097L78.0811 16.8856ZM72.1445 14.4883C69.8009 14.4883 67.7853 15.3083 66.203 16.8905L67.6173 18.3048C68.8085 17.1135 70.3084 16.4883 72.1445 16.4883V14.4883ZM66.208 16.8856C64.6021 18.4693 63.7812 20.4876 63.7812 22.832H65.7812C65.7812 20.9967 66.4057 19.4995 67.6123 18.3097L66.208 16.8856ZM63.7812 22.832C63.7812 25.1534 64.5801 27.1729 66.2079 28.7784L67.6124 27.3544C66.3886 26.1474 65.7812 24.6513 65.7812 22.832H63.7812ZM66.2131 28.7834C67.8083 30.3343 69.7976 31.1562 72.1445 31.1562V29.1562C70.3118 29.1562 68.8245 28.5329 67.6072 27.3494L66.2131 28.7834ZM72.1445 31.1562C74.4629 31.1562 76.4804 30.3596 78.0665 28.7735L76.6523 27.3593C75.4649 28.5467 73.9668 29.1562 72.1445 29.1562V31.1562ZM73.8488 20.871C74.3138 21.3783 74.5625 21.9921 74.5625 22.8125H76.5625C76.5625 21.5235 76.1471 20.4186 75.3231 19.5196L73.8488 20.871ZM74.5625 22.8125C74.5625 23.6383 74.3104 24.2699 73.8488 24.7735L75.3231 26.1249C76.1506 25.2222 76.5625 24.096 76.5625 22.8125H74.5625ZM73.8589 24.7626C73.4056 25.2426 72.8404 25.4844 72.0469 25.4844V27.4844C73.3236 27.4844 74.4381 27.0621 75.313 26.1358L73.8589 24.7626ZM72.0469 25.4844C71.2501 25.4844 70.6924 25.2335 70.2251 24.7524L68.7905 26.146C69.6513 27.0321 70.7343 27.4844 72.0469 27.4844V25.4844ZM70.2441 24.7726C69.7596 24.2453 69.5117 23.6121 69.5117 22.8125H67.5117C67.5117 24.0832 67.9279 25.2079 68.7715 26.1258L70.2441 24.7726ZM69.5117 22.8125C69.5117 21.9886 69.7427 21.4022 70.2343 20.8825L68.7813 19.5081C67.9057 20.4338 67.5117 21.527 67.5117 22.8125H69.5117ZM70.2354 20.8813C70.683 20.4066 71.2753 20.1406 72.0273 20.1406V18.1406C70.7482 18.1406 69.6217 18.6168 68.7802 19.5093L70.2354 20.8813ZM72.0273 20.1406C72.7992 20.1406 73.3977 20.4072 73.8687 20.8921L75.3032 19.4985C74.4461 18.6162 73.3258 18.1406 72.0273 18.1406V20.1406Z" fill="white"/>
</svg>
