<svg width="75" height="11" viewBox="0 0 75 11" fill="none" xmlns="http://www.w3.org/2000/svg">
<path d="M7.48 1.343V1.299C7.48 0.958 7.271 0.914 7.172 0.914H0.858C0.759 0.914 0.55 0.958 0.55 1.31V1.343H1.782V1.563H0.55V2.168C0.55 2.19 0.55 2.223 0.561 2.245H1.243C1.276 2.509 1.463 2.542 1.54 2.542L7.865 2.553C7.942 2.553 8.129 2.52 8.162 2.245H7.48C7.48 2.223 7.48 2.201 7.48 2.168V1.563H8.712V1.343H7.48ZM8.129 9.153V8.427C8.129 8.262 8.074 8.174 8.008 8.119H8.976C8.91 8.053 8.822 8.042 8.778 8.042H4.895C4.664 8.042 4.477 8.02 4.334 7.965C4.191 7.921 4.081 7.844 3.993 7.723C3.938 7.646 3.894 7.547 3.861 7.437H2.97C2.948 7.382 2.926 7.305 2.915 7.239C2.904 7.173 2.904 7.107 2.893 7.041C2.893 7.041 2.893 6.975 2.893 6.876H6.963C6.963 6.799 6.963 6.689 6.963 6.601H2.904C2.904 6.502 2.904 6.403 2.904 6.337H3.575C3.575 6.282 3.575 6.249 3.575 6.249H8.492C8.558 6.249 8.679 6.238 8.745 6.117H8.074C8.096 6.062 8.129 5.985 8.129 5.875V5.457H8.635V5.149H8.129V5.006C8.129 4.665 7.909 4.621 7.821 4.621L2.145 4.632C1.826 4.654 1.551 4.83 1.386 5.094C1.375 5.116 1.375 5.138 1.364 5.149H1.87C1.837 5.226 1.804 5.292 1.782 5.38V5.457H1.276L1.265 6.117H1.936V6.337H1.276L1.265 6.601H2.343V6.755V6.821C2.343 6.832 2.343 6.854 2.343 6.876H1.265C1.276 7.074 1.287 7.261 1.298 7.437H2.2C2.222 7.69 2.255 7.91 2.299 8.119H1.331C1.331 8.119 1.342 8.13 1.342 8.141C1.43 8.537 1.573 8.878 1.771 9.153H2.684C2.695 9.164 2.706 9.197 2.728 9.219C2.772 9.274 2.816 9.318 2.871 9.373H1.969C2.167 9.571 2.409 9.725 2.684 9.824C3.014 9.945 3.432 10.011 3.916 10.011H7.821C7.92 10.011 8.14 9.967 8.14 9.626V9.373H9.031V9.153H8.129ZM1.87 3.939H5.511V4.06H1.87V3.939ZM5.28 7.47H7.722V7.591H5.28V7.47ZM3.432 3.026H7.161V3.202H3.432V3.026ZM18.2253 1.915L18.5003 1.244C18.5003 1.233 18.5003 1.233 18.5003 1.233H19.1933C19.2263 1.145 19.2373 1.068 19.2263 1.002H18.5003C18.5003 0.990999 18.5003 0.979999 18.4893 0.969C18.4783 0.914 18.4233 0.815 18.2473 0.815H17.0373C16.9163 0.815 16.8173 0.880999 16.7513 1.002H17.9283C17.9283 1.013 17.9173 1.024 17.9063 1.046L17.8403 1.233H16.6853L16.4103 1.915H17.9283L17.3453 3.389H16.6963L16.4213 4.071H15.1453L14.4523 5.831H12.9013L12.1973 4.071H13.3413L13.0663 3.389H13.7153L13.4513 2.729H15.7173V2.608H13.3963L13.1213 1.915H11.6033L11.3283 1.233H12.4833L12.4063 1.046C12.4063 1.035 12.3953 1.013 12.3843 1.002H11.2073C11.1523 0.880999 11.0533 0.815 10.9213 0.815H9.73328C9.55728 0.815 9.51328 0.924999 9.50228 0.969C9.50228 0.979999 9.49128 0.990999 9.49128 1.002H10.6793C10.6683 1.068 10.6793 1.145 10.7013 1.233H9.55728V1.244L9.83228 1.915H11.3393L11.9443 3.389H11.2953L11.5703 4.071H10.2943L10.9983 5.831H12.8133L12.9013 6.051H11.5263L11.9883 7.173H11.0313L11.3063 7.855H13.0553L12.7803 7.173H13.3963L13.1323 7.855H13.0553L13.4623 8.856C13.4733 8.878 13.4733 8.889 13.4843 8.9H14.6613C14.6833 8.944 14.7053 8.988 14.7163 9.021C14.7273 9.065 14.7493 9.098 14.7603 9.131H12.3403C12.4503 9.428 12.6593 9.659 12.9233 9.813H14.1663C14.3753 9.934 14.6063 10.011 14.8483 10.011C15.1013 10.011 15.3323 9.934 15.5413 9.813H14.2983C14.3203 9.802 14.3423 9.791 14.3643 9.769C14.4303 9.736 14.4853 9.703 14.5293 9.659C14.6613 9.549 14.7713 9.384 14.8923 9.131H16.6853C16.7183 9.065 16.7513 8.988 16.7843 8.9H16.2343C16.2343 8.889 16.2453 8.878 16.2563 8.856L16.6523 7.855H14.9033L15.1783 7.173H16.1353L16.5863 6.051H17.9613L18.0493 5.831H16.2563L16.1683 6.051H14.7933L14.3533 7.173H13.7373L13.2863 6.051H14.6613L14.5733 5.831H16.2453L16.9493 4.071H17.6643L17.9393 3.389H18.5883L19.1713 1.915H18.2253ZM14.8813 7.855C14.8703 7.877 14.8703 7.877 14.8703 7.877L14.8263 7.888C14.8263 7.888 14.8153 7.877 14.8043 7.855H14.8813ZM12.6813 1.486H14.5183V1.607H12.6813V1.486ZM13.0663 4.313H14.3863V4.434H13.0663V4.313ZM27.0613 1.343V1.299C27.0613 0.958 26.8523 0.914 26.7533 0.914H20.4393C20.3403 0.914 20.1313 0.958 20.1313 1.31V1.343H21.3633V1.563H20.1313V2.168C20.1313 2.19 20.1313 2.223 20.1423 2.245H20.8243C20.8573 2.509 21.0443 2.542 21.1213 2.542L27.4463 2.553C27.5233 2.553 27.7103 2.52 27.7433 2.245H27.0613C27.0613 2.223 27.0613 2.201 27.0613 2.168V1.563H28.2933V1.343H27.0613ZM27.7103 9.153V8.427C27.7103 8.262 27.6553 8.174 27.5893 8.119H28.5573C28.4913 8.053 28.4033 8.042 28.3593 8.042H24.4763C24.2453 8.042 24.0583 8.02 23.9153 7.965C23.7723 7.921 23.6623 7.844 23.5743 7.723C23.5193 7.646 23.4753 7.547 23.4423 7.437H22.5513C22.5293 7.382 22.5073 7.305 22.4963 7.239C22.4853 7.173 22.4853 7.107 22.4743 7.041C22.4743 7.041 22.4743 6.975 22.4743 6.876H26.5443C26.5443 6.799 26.5443 6.689 26.5443 6.601H22.4853C22.4853 6.502 22.4853 6.403 22.4853 6.337H23.1563C23.1563 6.282 23.1563 6.249 23.1563 6.249H28.0733C28.1393 6.249 28.2603 6.238 28.3263 6.117H27.6553C27.6773 6.062 27.7103 5.985 27.7103 5.875V5.457H28.2163V5.149H27.7103V5.006C27.7103 4.665 27.4903 4.621 27.4023 4.621L21.7263 4.632C21.4073 4.654 21.1323 4.83 20.9673 5.094C20.9563 5.116 20.9563 5.138 20.9453 5.149H21.4513C21.4183 5.226 21.3853 5.292 21.3633 5.38V5.457H20.8573L20.8463 6.117H21.5173V6.337H20.8573L20.8463 6.601H21.9243V6.755V6.821C21.9243 6.832 21.9243 6.854 21.9243 6.876H20.8463C20.8573 7.074 20.8683 7.261 20.8793 7.437H21.7813C21.8033 7.69 21.8363 7.91 21.8803 8.119H20.9123C20.9123 8.119 20.9233 8.13 20.9233 8.141C21.0113 8.537 21.1543 8.878 21.3523 9.153H22.2653C22.2763 9.164 22.2873 9.197 22.3093 9.219C22.3533 9.274 22.3973 9.318 22.4523 9.373H21.5503C21.7483 9.571 21.9903 9.725 22.2653 9.824C22.5953 9.945 23.0133 10.011 23.4973 10.011H27.4023C27.5013 10.011 27.7213 9.967 27.7213 9.626V9.373H28.6123V9.153H27.7103ZM21.4513 3.939H25.0923V4.06H21.4513V3.939ZM24.8613 7.47H27.3033V7.591H24.8613V7.47ZM23.0133 3.026H26.7423V3.202H23.0133V3.026ZM35.5626 5.556C35.7276 5.314 35.8486 5.028 35.9256 4.687H37.3116C37.3336 4.61 37.3556 4.511 37.3666 4.423H35.8596C35.9036 4.181 35.9256 3.917 35.9256 3.631H37.0916C37.0916 3.62 37.0916 3.609 37.0916 3.598C37.0916 3.323 37.0696 3.07 37.0366 2.85H36.6076C36.6076 2.839 36.6076 2.839 36.6076 2.839H36.1236C36.0796 2.542 36.0136 2.289 35.9256 2.058H36.7836C36.7176 1.904 36.6406 1.761 36.5526 1.64C36.4536 1.486 36.3216 1.365 36.1676 1.266H35.2326C34.9136 1.046 34.5066 0.935999 33.9896 0.935999H28.9186C28.8306 0.935999 28.6326 0.969 28.6106 1.266H29.5456C29.5456 1.288 29.5456 1.299 29.5456 1.321V2.058H28.6766V2.19C28.6766 2.531 28.8966 2.564 28.9956 2.564H33.7806C34.0666 2.564 34.2646 2.641 34.3746 2.806C34.3746 2.817 34.3856 2.828 34.3856 2.839H34.8696C34.8696 2.839 34.8696 2.839 34.8696 2.85H35.2986C35.4086 3.015 35.4636 3.268 35.4636 3.598C35.4636 3.609 35.4526 3.62 35.4526 3.631H34.2976C34.2976 3.972 34.2316 4.225 34.1216 4.39C34.1106 4.401 34.0996 4.412 34.0886 4.423H35.5956C35.4746 4.555 35.2986 4.632 35.0346 4.632H30.2496C30.2056 4.632 30.1286 4.632 30.0516 4.687H28.6656C28.5996 4.742 28.5446 4.841 28.5446 5.006V5.908H29.5896V6.7H28.8306V7.987H29.6446V8.262H28.8306V9.626C28.8306 9.67 28.8306 9.714 28.8416 9.747H29.3476C29.3916 9.978 29.5676 10.011 29.6556 10.011H30.6566C30.7446 10.011 30.9096 9.978 30.9536 9.747H30.4476C30.4586 9.714 30.4586 9.67 30.4586 9.626V8.262H32.2736V7.987H30.4586V6.7H31.2176V6.26H33.5386L33.7806 6.7H33.0216L33.7586 7.987H34.5726L34.7156 8.262H33.9126L34.7596 9.747H35.2656L35.2876 9.791C35.3206 9.857 35.3646 9.912 35.3976 9.945C35.4526 9.989 35.5296 10.011 35.6396 10.011H36.8386C36.9706 10.011 37.0696 9.923 37.0916 9.791C37.0916 9.78 37.0916 9.769 37.0916 9.747H36.5856C36.5856 9.659 36.5746 9.582 36.5416 9.527L35.7936 8.262H36.6076L36.4536 7.987H35.6396L34.8806 6.7H35.6396L35.3646 6.227C35.7166 6.183 36.0136 6.073 36.2556 5.908H35.2106C35.3426 5.809 35.4636 5.688 35.5626 5.556ZM31.6906 4.247H29.3806V3.961H31.6906V4.247ZM32.7136 3.125H30.6786V2.982H32.7136V3.125ZM33.2966 9.043H31.2616V8.889H33.2966V9.043ZM45.7377 9.417V8.757C45.7377 8.416 45.5177 8.372 45.4297 8.372H41.8547C41.6237 8.372 41.4257 8.35 41.2827 8.295H40.7217C40.5897 8.251 40.4797 8.163 40.4027 8.053C40.3147 7.932 40.2597 7.767 40.2157 7.569C40.2157 7.569 40.2157 7.569 40.2157 7.558H40.6997C40.6667 7.349 40.6447 7.074 40.6447 6.744V6.37H41.6127V6.128H40.6777V4.258H40.2157V3.521H42.2067V3.026H40.3697V2.289H40.6777V1.563H40.1167V1.321C40.1167 0.969 39.8967 0.935999 39.8087 0.935999H38.7967C38.6977 0.935999 38.4777 0.969 38.4777 1.321V1.563H39.0497V2.289H38.0817V3.026H38.9287V3.521H38.5767V4.258H39.0497V6.128H38.4997V6.37H39.0167V6.557C39.0167 6.931 39.0387 7.261 39.0717 7.558H38.5767C38.6097 7.767 38.6317 7.965 38.6757 8.13C38.6867 8.196 38.7087 8.24 38.7197 8.295H39.2697C39.3687 8.658 39.5117 8.977 39.7097 9.208C39.7647 9.285 39.8197 9.351 39.8857 9.417H38.8297C38.9287 9.505 39.0387 9.582 39.1597 9.659H40.4797C40.5897 9.725 40.6997 9.78 40.8207 9.824C41.1617 9.945 41.5797 10.011 42.0527 10.011H45.6937C45.7817 10.011 45.9797 9.967 45.9907 9.659H46.3207C46.3207 9.648 46.3207 9.637 46.3207 9.626V9.417H45.7377ZM43.6697 5.743H42.0637V5.6H43.6697V5.743ZM43.1527 7.624H40.8427V7.503H43.1527V7.624ZM43.5047 2.278H41.2497V2.058H43.5047V2.278ZM55.7195 4.962V4.379C55.7195 3.829 55.6755 3.345 55.5985 2.938H54.7955C54.7845 2.894 54.7845 2.85 54.7735 2.817C54.7185 2.564 54.6415 2.344 54.5425 2.146H55.0485C54.9825 1.992 54.9055 1.86 54.8065 1.739C54.7625 1.684 54.7185 1.64 54.6745 1.596H55.2795C55.0815 1.387 54.8395 1.233 54.5535 1.123C54.2125 1.002 53.7945 0.935999 53.3105 0.935999H50.6375C50.1535 0.935999 49.7355 1.002 49.3945 1.123C49.1085 1.233 48.8775 1.387 48.6795 1.596H48.0745C48.0305 1.64 47.9755 1.684 47.9425 1.739C47.8435 1.86 47.7665 1.992 47.7005 2.146H47.1835C47.0845 2.344 47.0075 2.564 46.9525 2.817C46.9415 2.85 46.9415 2.894 46.9305 2.938H47.7335C47.6455 3.345 47.6015 3.829 47.6015 4.379V4.962H46.8095V5.226H47.3265V6.524H46.9305V6.557C46.9305 6.832 46.9415 7.085 46.9635 7.316H47.3045C47.3265 7.624 47.3705 7.899 47.4255 8.13C47.4585 8.273 47.4915 8.405 47.5355 8.537H46.8205C46.8535 8.625 46.8865 8.713 46.9305 8.801H47.9425C48.0085 8.955 48.0965 9.087 48.1845 9.208C48.3055 9.362 48.4375 9.483 48.5915 9.593H47.9975C48.1295 9.681 48.2835 9.769 48.4485 9.824C48.7785 9.945 49.1965 10.011 49.6805 10.011H52.3645C52.8485 10.011 53.2665 9.945 53.6075 9.824C53.7725 9.769 53.9155 9.681 54.0585 9.593H54.6525C54.8065 9.483 54.9385 9.362 55.0595 9.219C55.1585 9.087 55.2355 8.955 55.3125 8.801H54.5865C54.6305 8.713 54.6635 8.625 54.6965 8.537H55.1255C55.1695 8.405 55.2135 8.273 55.2355 8.13C55.2905 7.888 55.3345 7.624 55.3565 7.316H55.6865C55.7085 7.085 55.7195 6.832 55.7195 6.557V6.524H55.5325V5.226H55.1255V4.962H55.7195ZM53.4865 5.226V6.524H54.0805V6.755C54.0805 6.964 54.0695 7.151 54.0585 7.316H53.7285C53.7175 7.404 53.7065 7.492 53.6955 7.569C53.6515 7.767 53.5965 7.943 53.5085 8.053C53.4315 8.174 53.3215 8.251 53.1785 8.295C53.0355 8.35 52.8485 8.372 52.6175 8.372H50.0435C49.8125 8.372 49.6255 8.35 49.4715 8.295C49.3395 8.251 49.2295 8.174 49.1525 8.053C49.0645 7.943 48.9985 7.767 48.9655 7.569C48.9545 7.492 48.9435 7.404 48.9325 7.316H48.5915C48.5695 7.151 48.5585 6.964 48.5585 6.755V6.524H48.9545V5.226H51.4295V4.962H49.2405V4.192C49.2405 3.873 49.2515 3.598 49.2955 3.378C49.3285 3.191 49.3835 3.048 49.4495 2.938H48.6465C48.6575 2.916 48.6685 2.905 48.6795 2.883C48.7565 2.773 48.8665 2.696 49.0095 2.641C49.1525 2.597 49.3395 2.564 49.5705 2.564H52.1445C52.3755 2.564 52.5625 2.597 52.7165 2.641C52.8485 2.696 52.9585 2.773 53.0355 2.883C53.0465 2.905 53.0575 2.916 53.0685 2.938H53.8715C53.9375 3.048 53.9925 3.202 54.0255 3.378C54.0695 3.598 54.0805 3.873 54.0805 4.192V4.962H53.2115V5.226H53.4865ZM52.8595 7.228H51.2535V7.085H52.8595V7.228ZM50.7585 7.767H49.7135V7.69H50.7585V7.767ZM52.8595 3.631H50.7695V3.422H52.8595V3.631ZM50.9785 6.326H49.4385V6.216H50.9785V6.326ZM64.3134 6.909H65.2594V6.865C65.2594 6.59 65.2374 6.348 65.1934 6.117H63.8294C63.7634 5.743 63.6424 5.435 63.4664 5.193C63.3784 5.083 63.2904 4.984 63.1804 4.907H64.9624C64.7974 4.775 64.6104 4.687 64.4014 4.643H62.8064C62.6634 4.61 62.5094 4.588 62.3444 4.588H59.0554C58.8904 4.588 58.6704 4.522 58.6704 3.983V3.851H60.1114V3.169C60.1114 3.136 60.1114 3.092 60.1114 3.059H59.2204C59.2204 3.059 59.2204 3.059 59.2204 3.048H58.7584C58.7694 2.905 58.8024 2.795 58.8574 2.707C58.8904 2.641 58.9564 2.564 59.1434 2.564H63.6204C63.6974 2.564 63.8844 2.531 63.9174 2.278H64.9624C64.9624 2.245 64.9624 2.223 64.9624 2.19V1.486H63.6314V1.31C63.6314 0.969 63.4224 0.935999 63.3234 0.935999H58.5824C58.0214 0.935999 57.5924 1.123 57.3064 1.486H58.6374C58.6154 1.508 58.6044 1.519 58.5824 1.541C58.4394 1.75 58.3294 2.003 58.2634 2.278H57.2184C57.1634 2.509 57.1304 2.773 57.1304 3.048H57.5814C57.5814 3.059 57.5814 3.059 57.5814 3.059H57.7794C57.7794 3.07 57.7794 3.081 57.7794 3.103V3.851H57.0424V3.939C57.0424 4.192 57.0534 4.423 57.0864 4.643H58.1644C58.1864 4.731 58.1974 4.819 58.2194 4.907H56.9434C57.0204 5.226 57.1304 5.501 57.2734 5.699C57.4384 5.919 57.6364 6.04 57.8564 6.117H59.2204C59.4514 6.194 59.7044 6.216 59.9464 6.216H63.2464C63.4114 6.216 63.6314 6.282 63.6314 6.821V6.909H62.6854V7.767C62.6854 7.954 62.6524 8.097 62.5974 8.207H63.4004C63.4004 8.218 63.4004 8.218 63.3894 8.229C63.3564 8.295 63.2904 8.372 63.1034 8.372H58.4064C58.3404 8.372 58.2414 8.383 58.1644 8.471H56.7014C56.6574 8.526 56.6244 8.614 56.6244 8.746V9.527H57.9554V9.626C57.9554 9.967 58.1754 10 58.2634 10H63.2354C63.7634 10 64.1704 9.846 64.4564 9.527H63.1254C63.1694 9.483 63.2024 9.439 63.2354 9.384C63.4224 9.131 63.5434 8.823 63.6094 8.471H65.0724C65.0834 8.383 65.0944 8.295 65.1054 8.207H64.2914C64.3024 8.086 64.3134 7.965 64.3134 7.833V6.909ZM60.9364 8.009H58.6264V7.723H60.9364V8.009ZM63.3344 4.247H61.7504V3.961H63.3344V4.247ZM61.6624 6.799H59.6164V6.645H61.6624V6.799ZM62.6744 3.125H60.6394V2.982H62.6744V3.125ZM74.0218 0.935999H66.7398C66.6408 0.935999 66.4208 0.969 66.4208 1.31V1.662H65.5738V2.168C65.5738 2.531 65.7938 2.564 65.8928 2.564H68.7198V2.894H69.9188V3.158H68.9288V4.709H69.5668V5.512H69.1048V6.722H69.5668V6.986H68.9288V7.778H69.5668V8.57H69.3138H68.9618V9.351H69.9188V9.626C69.9188 9.967 70.1388 10 70.2268 10H71.2498C71.3378 10 71.5578 9.967 71.5578 9.626V9.351H71.2718V8.57H70.9418H71.6018V7.778H70.5678V6.986H71.6018V6.722H70.7438V5.512H71.4808V4.709H70.5678V3.158H72.5698V2.894H70.3478V2.564H73.1748C73.2738 2.564 73.4938 2.531 73.4938 2.168V1.662H74.3408V1.31C74.3408 0.969 74.1208 0.935999 74.0218 0.935999ZM72.8888 3.994H71.2938V3.708H72.8888V3.994ZM68.4668 3.301H66.4208V3.158H68.4668V3.301Z" fill="#010417"/>
</svg>
