<svg width="512" height="512" viewBox="0 0 512 512" fill="none" xmlns="http://www.w3.org/2000/svg">
<g clip-path="url(#clip0_1840_1802)">
<path d="M69 229.651H91.31L104.301 262.887L117.46 229.651H139.183L106.474 308.331H84.6135L93.5671 287.482L69 229.651Z" fill="#5F01D1"/>
<path d="M161.812 228.328C145.049 228.328 134.453 243.361 134.453 258.332C134.453 275.179 146.071 288.535 161.494 288.535C172.999 288.535 177.337 281.526 177.337 281.526V286.986H196.796V229.651H177.337V234.864C177.337 234.864 172.497 228.328 161.812 228.328ZM165.951 246.753C173.685 246.753 177.677 252.873 177.677 258.395C177.677 264.342 173.401 270.177 165.951 270.177C159.777 270.177 154.197 265.131 154.197 258.648C154.197 252.073 158.685 246.753 165.951 246.753Z" fill="#5F01D1"/>
<path d="M203.497 286.986V204.334H223.85V235.062C223.85 235.062 228.684 228.335 238.809 228.335C251.193 228.335 258.449 237.563 258.449 250.748V286.986H238.246V255.712C238.246 251.25 236.12 246.939 231.305 246.939C226.404 246.939 223.85 251.315 223.85 255.712V286.986H203.497Z" fill="#5F01D1"/>
<path d="M293.15 228.335C273.953 228.335 262.523 242.932 262.523 258.571C262.523 276.368 276.363 288.535 293.222 288.535C309.563 288.535 323.863 276.921 323.863 258.869C323.863 239.118 308.891 228.335 293.15 228.335ZM293.333 246.922C300.114 246.922 304.805 252.569 304.805 258.592C304.805 263.729 300.434 270.065 293.333 270.065C286.827 270.065 281.944 264.846 281.944 258.536C281.944 252.458 286.003 246.922 293.333 246.922Z" fill="#5F01D1"/>
<path d="M357.769 228.335C338.573 228.335 327.142 242.932 327.142 258.571C327.142 276.368 340.982 288.535 357.842 288.535C374.183 288.535 388.482 276.921 388.482 258.869C388.482 239.118 373.51 228.335 357.769 228.335ZM357.952 246.922C364.733 246.922 369.425 252.569 369.425 258.592C369.425 263.729 365.053 270.065 357.952 270.065C351.446 270.065 346.563 264.846 346.563 258.536C346.563 252.458 350.623 246.922 357.952 246.922Z" fill="#5F01D1"/>
<path d="M404.542 288.203C412.006 288.203 418.056 282.152 418.056 274.688C418.056 267.224 412.006 261.173 404.542 261.173C397.078 261.173 391.027 267.224 391.027 274.688C391.027 282.152 397.078 288.203 404.542 288.203Z" fill="#5F01D1"/>
<path d="M422.497 256.209H398.167L419.761 204.334H444L422.497 256.209Z" fill="#5F01D1"/>
</g>
<defs>
<clipPath id="clip0_1840_1802">
<rect width="375" height="103.997" fill="white" transform="translate(69 204.334)"/>
</clipPath>
</defs>
</svg>
