<svg width="196" height="60" viewBox="0 0 196 60" fill="none" xmlns="http://www.w3.org/2000/svg">
<g clip-path="url(#clip0_1587_1778)">
<path d="M158.845 21.6959C158.872 21.6865 158.892 21.6959 158.918 21.6881C158.923 21.6647 158.928 21.646 158.933 21.6211C158.914 21.6257 158.895 21.6257 158.875 21.6289C158.865 21.6507 158.851 21.6741 158.844 21.6959H158.845Z" fill="white"/>
<path d="M151.352 23.0192C151.365 23.0463 151.383 23.0638 151.398 23.0862C151.399 23.0862 151.401 23.0846 151.402 23.083L151.352 23.0192Z" fill="white"/>
<path d="M179.874 22.2845L179.854 22.2535C179.625 22.3077 179.548 22.4499 179.52 22.6216C179.661 22.5783 179.786 22.4932 179.874 22.2845Z" fill="white"/>
<path d="M181.835 22.948C181.848 22.9799 181.866 22.9895 181.879 23.0182C181.881 23.0182 181.882 23.015 181.884 23.0134L181.833 22.948H181.835Z" fill="white"/>
<path d="M92.7614 23.0516C92.7756 23.0656 92.7827 23.0842 92.797 23.0981C92.8141 23.0594 92.8326 23.0268 92.8469 22.9788L92.7956 23.0222C92.8198 23.0005 92.8469 22.9788 92.8469 22.9788C92.8284 22.9788 92.8113 22.9788 92.7927 22.9788C92.7813 23.0036 92.7685 23.0284 92.7614 23.0516Z" fill="white"/>
<path d="M77.7419 20.7273C77.6252 20.7133 77.4844 20.7675 77.3193 20.8958C77.3193 20.9005 77.3193 20.9036 77.3193 20.9082C77.4602 20.8525 77.601 20.7907 77.7433 20.7257L77.7419 20.7273Z" fill="white"/>
<path d="M179.678 38.5371C178.922 38.5936 178.166 38.657 177.41 38.7032C176.862 38.7375 176.436 38.0182 176.253 37.3263C175.954 36.1909 175.488 35.8346 174.931 35.5555L174.917 35.5795C174.398 35.8295 173.37 34.6427 173.651 37.1859C173.679 37.4445 173.43 37.8743 173.178 37.8452C172.836 37.8076 172.979 37.3417 172.945 36.9735C172.867 36.16 172.827 36.1429 172.409 36.4923C172.416 36.5214 172.422 36.5505 172.429 36.5796C172.416 36.5711 172.401 36.5625 172.386 36.5539C172.387 36.5385 172.39 36.5231 172.392 36.5077C172.378 36.5197 172.371 36.5231 172.356 36.5351C172.366 36.5419 172.377 36.5471 172.386 36.5539C172.385 36.5693 172.382 36.583 172.381 36.5985L172.384 36.607C172.181 36.4923 171.956 36.208 171.778 36.2885C168.814 37.6294 165.741 36.9684 162.704 37.9668C163.6 39.3592 164.441 38.3727 165.285 38.0987C165.952 37.8812 166.597 37.7921 166.66 39.5458C167.446 37.4548 168.272 38.2117 169.166 39.342C169.576 39.8609 170.052 40.3216 170.824 40.3011C170.485 39.9603 170.309 39.7839 170.143 39.616C171.147 38.2905 172.333 39.3968 173.329 38.3539C173.519 39.7668 172.547 38.9738 172.765 40.1127C172.762 40.1093 172.758 40.1093 172.755 40.1076C172.821 40.7806 172.488 42.2706 172.044 42.435C171.652 42.5805 171.076 43.7245 170.731 42.2706C170.731 42.2706 170.73 42.2706 170.729 42.2706C170.729 42.2706 170.729 42.2671 170.729 42.2654C170.723 42.2397 170.715 42.2243 170.709 42.1969C170.52 42.5411 170.372 42.7878 169.991 42.7021C167.472 42.1353 164.95 42.0462 162.403 42.2021C161.551 42.2534 160.515 43.1337 159.536 41.8681C159.042 41.231 158.106 41.8082 157.476 42.0068C156.847 42.2055 156.187 42.2808 155.628 42.1541C153.251 41.6129 150.85 42.1952 148.474 41.4314C147.9 41.2464 147.226 41.9075 146.552 41.8715C145.114 41.7962 143.708 41.7465 142.283 40.9895C141.882 40.7772 140.866 41.9691 140.226 41.7499C139.011 41.3338 137.857 41.9041 136.677 41.8835C135.774 41.8681 135.117 40.337 134.162 40.5443C133.88 40.6059 133.542 40.1487 133.436 40.9827C133.239 42.548 132.789 41.9109 132.398 41.392C132.224 41.1608 132.11 40.695 131.905 41.1694C131.82 41.3663 131.835 41.714 131.82 42.0154C131.844 42.0239 131.868 42.0325 131.892 42.0411C131.876 42.0565 131.86 42.0702 131.843 42.0856C131.835 42.0719 131.826 42.0582 131.819 42.0462C131.819 42.0616 131.819 42.077 131.817 42.0907C130.239 40.6984 128.626 41.8561 127.027 41.8578C122.829 41.863 118.663 43.2074 114.459 42.8563C114.086 42.8254 113.716 42.6079 113.345 42.4744C112.963 41.3577 112.498 42.4435 112.091 42.4384C109.549 42.4161 107.012 42.2192 104.476 42.0719C102.035 41.9298 99.5599 41.9709 97.1165 41.7448C95.8907 41.6318 94.4906 42.882 93.2909 40.8166C93.1702 40.6076 91.8404 41.6438 91.0207 41.5376C90.1874 41.4297 89.3288 41.6712 88.5343 40.9536C88.4021 40.8337 88.3391 40.3473 88.1124 40.6693C87.235 41.9143 86.3261 41.1368 85.3825 40.9913C83.4839 40.6984 81.5747 41.0221 79.6666 41.2755C78.2938 41.4588 76.879 40.4672 75.5398 41.8065C75.5052 40.9656 74.0421 42.2483 74.8314 40.1059C74.9888 39.6794 74.7159 39.5612 74.4588 39.6229C74.2069 39.6828 73.8553 39.0098 73.7912 40.0802C73.7482 40.8046 73.9161 41.8972 73.1552 41.5616L73.1384 41.6129C71.4193 43.0378 69.5343 42.6816 67.7783 42.697C65.1901 42.7193 62.5799 42.8717 59.9991 42.5326C58.6808 42.3596 57.3174 41.5838 56.0023 41.7208C54.5802 41.8681 53.241 41.0512 51.7884 41.3064C49.9527 41.6318 48.0772 42.2277 46.2069 41.7619C45.9098 41.6883 45.4995 41.5735 45.4669 41.0118C45.3819 39.5835 45.1111 40.3422 44.897 40.7857C44.4153 41.7808 43.8726 41.5513 43.2167 41.6455C41.487 41.8904 39.7615 41.7208 38.0403 41.7739C36.2529 41.8287 34.4634 41.1437 32.6697 41.0135C29.8852 40.8114 27.1008 41.0341 24.3131 41.1882C22.022 41.3149 19.757 42.4812 17.4407 41.7962C17.108 41.6968 16.7742 41.5821 16.4488 41.428C16.0773 41.2516 15.5189 41.207 16.282 40.2651C16.5045 39.9911 15.7813 39.7702 15.8139 38.7461C19.8001 38.2665 23.8104 37.7836 27.8208 37.3006C22.8795 37.3452 17.9476 35.9819 13 36.5711C13.0819 35.8775 13.085 35.8706 14.8441 34.1221C14.8976 33.7795 14.8651 33.5586 14.6405 33.4524C14.1566 33.2247 13.5783 32.7605 13.7084 31.7707C13.8575 30.6249 14.5082 29.9194 15.1337 30.0752C16.7721 30.4828 18.3737 29.9656 20.0362 29.8371C19.7549 28.5253 19.1714 29.0065 18.7547 28.8832C17.8615 28.6195 17.0901 27.9841 16.495 26.7408C16.1424 26.0044 16.5517 26.0746 16.77 25.9753C16.8865 24.6206 17.3578 25.0436 17.8384 25.1909C18.5312 25.4015 19.1787 26.376 19.9103 25.8228C20.1275 24.6463 18.9772 25.2423 19.3488 24.0537C19.4632 23.6872 19.7381 23.4954 19.9386 23.2248C20.1244 23.9424 20.3311 24.6429 20.709 23.5417C20.9262 22.908 20.6869 21.2194 20.2955 20.3836C21.7753 18.9553 23.3602 19.6883 24.8862 19.5873C27.1816 19.4366 29.4833 19.625 31.7797 19.5119C33.8777 19.4075 35.9716 18.9827 38.0697 18.9074C39.4834 18.856 40.9339 18.5477 42.2941 18.8115C43.3279 19.0119 44.346 18.7498 45.3704 18.981C46.5196 19.2413 47.7088 18.8851 48.8601 19.1369C49.3555 19.2448 49.9044 20.6868 50.34 20.2997C51.3728 19.3801 52.4549 20.2518 53.4551 19.5821L53.4729 19.5462C53.4645 19.5633 53.4551 19.5821 53.4551 19.5821C53.4572 19.5325 53.4593 19.4845 53.4603 19.4349C53.4677 19.4657 53.475 19.4948 53.4855 19.5188L53.4887 19.5119C54.4249 19.7722 55.4429 19.416 56.2207 20.793C55.0903 20.8615 53.9736 21.0396 52.8778 21.5379C52.8778 21.5379 52.8768 21.5379 52.8757 21.5414C53.0164 21.8291 53.2473 22.038 53.1308 22.5569C53.5359 23.2796 54.2674 24.2301 54.4417 23.2111C54.7691 21.3033 55.6465 21.5944 56.2228 20.7947C56.6352 19.9161 57.329 20.0685 57.71 19.6952C59.5079 17.9415 61.2197 20.9471 62.9451 19.6387C63.1015 19.5205 63.4321 20.2038 63.6819 20.5138L63.6546 20.4693C63.6546 20.4693 63.6567 20.4693 63.6578 20.4693C63.6809 20.4504 63.7061 20.4419 63.7313 20.4402C63.7229 20.4539 63.7134 20.4658 63.705 20.4795C64.8658 20.7364 66.1305 20.9591 67.1308 20.1165C68.8499 18.6676 70.4956 18.3645 72.3733 18.3439C74.5753 18.32 76.8245 19.9075 79.0107 18.1761C79.9301 20.1987 81.1896 19.3218 82.322 19.5428C82.8835 19.6524 83.4671 19.2259 84.0076 19.7979C84.0527 19.774 84.0989 19.75 84.1441 19.7277C84.0968 19.7483 84.0506 19.7688 84.0034 19.7911C84.2899 19.4006 84.3938 18.5084 84.884 18.6693C84.8861 18.6813 84.8819 18.695 84.884 18.7087C84.8682 18.7276 84.8556 18.731 84.8399 18.7515C84.8546 18.743 84.8693 18.7327 84.8829 18.7241C84.8966 19.1471 84.3718 19.6575 84.9186 19.9692C85.1842 20.1216 85.4465 19.8853 85.4298 19.2379C85.4172 18.7515 85.3279 18.5477 85.1947 18.5238C86.0091 17.9638 86.8278 17.2958 87.5656 19.017C88.3213 19.2756 89.1714 17.8473 89.8526 19.4623L89.8295 19.5051C90.0509 19.6369 90.0069 21.1457 90.3354 20.1644C90.7804 18.8355 91.0281 18.7926 91.5812 19.8339C91.7449 20.1405 92.2025 20.173 92.4544 19.9897C93.314 19.3664 94.1295 19.5017 94.9818 20.2124C94.7498 22.0449 93.5628 20.1764 93.1545 22.1134C93.9931 21.0481 94.7655 21.8941 95.5065 21.5122C95.5065 21.4968 95.5065 21.4797 95.5065 21.4643C95.5191 21.4763 95.5317 21.4865 95.5443 21.4985L95.5065 21.5636C95.7721 21.4283 96.1237 21.7554 96.3 21.1475C96.7261 21.8787 96.5676 22.9782 96.7702 23.8568C97.2519 24.112 97.5605 23.516 97.8922 23.0416C97.8974 23.021 97.8985 23.0056 97.9037 22.9868C97.909 22.9919 97.9153 22.9953 97.9216 23.0005L97.8922 23.045C98.292 23.1957 98.7539 21.9712 99.1023 23.2283C99.1768 22.0517 99.5463 21.442 100.162 21.3067L100.14 21.3393C100.675 23.1409 101.268 23.4252 101.963 21.6116C101.994 21.5328 102.192 21.6612 102.304 21.7349C102.32 21.7452 102.291 21.9935 102.285 22.1271C102.307 22.1442 102.328 22.1682 102.348 22.1904C102.333 22.1408 102.318 22.0928 102.302 22.0431C102.998 22.509 102.642 20.858 103.122 20.6474C103.76 20.3682 105.955 20.8272 106.733 21.7314C106.802 21.8119 106.928 21.9712 106.938 21.949C107.608 20.5275 108.682 22.1065 109.369 20.8049C109.365 20.8049 109.36 20.8084 109.355 20.8101C109.999 19.5993 110.687 19.8836 111.392 20.584C111.396 20.584 111.4 20.584 111.404 20.5823C111.59 20.2329 111.775 19.8836 111.96 19.5359L111.946 19.5616C111.938 19.5753 111.93 19.5873 111.93 19.5873C111.939 19.5702 111.949 19.5513 111.958 19.5325C111.411 19.4263 111.549 18.5306 111.45 17.9226C111.443 17.8781 111.653 17.5955 111.731 17.6366C112.106 17.8353 112.3 18.2994 112.202 19.0718L112.23 19.0238C112.223 19.0375 112.215 19.0512 112.207 19.0667C112.552 18.7293 112.878 18.0956 113.284 18.7464C113.232 18.2155 113.398 17.9586 113.625 18.1624C113.927 18.4347 114.011 18.9845 113.751 19.4914C113.508 19.9641 113.18 20.3031 113.107 21.0104C113.715 20.4196 114.338 19.899 115.029 19.7483C115.029 19.7192 115.029 19.69 115.029 19.6609C115.036 19.6883 115.042 19.7157 115.048 19.7431C115.048 19.7431 115.026 19.8031 115.029 19.7945L115.026 19.8031C115.483 19.3629 115.622 20.6457 116.035 20.4282C115.8 18.5974 116.144 17.9894 117.132 18.5649C117.615 18.8457 118.001 19.5804 118.646 19.2259C119.003 19.029 119.426 19.8887 119.214 20.9505C119.315 20.5121 119.346 20.5018 119.754 20.7775L119.827 20.8289C119.827 20.8289 119.743 20.7998 119.742 20.8015C120.581 21.5431 121.399 22.4011 122.271 22.9628C122.61 23.182 123.153 23.5262 123.229 21.7845C123.297 20.2672 124.13 21.8291 124.592 21.8C125.589 21.7349 126.582 22.6237 126.879 19.8784C127.875 20.0171 128.644 18.5032 129.645 18.5803C130.378 18.6368 130.388 18.5495 130.522 16.9379C130.578 16.2563 130.835 16.4961 131.008 16.5543C132.452 17.0235 133.86 17.986 135.365 17.587C135.598 17.5253 135.679 17.7377 135.762 18.2498C136.021 19.8545 136.439 20.1011 137.427 19.4674C137.429 19.464 137.431 19.4606 137.434 19.4571C137.435 19.4588 137.436 19.4606 137.437 19.4623C137.437 19.4623 137.383 19.5393 137.383 19.541C138.031 20.3956 138.393 22.6083 139.532 21.1355C139.759 21.6921 140.229 21.5619 140.182 21.2057C139.742 17.8713 141.432 19.351 141.906 18.1932C142.509 19.0718 141.24 20.721 142.288 21.007C142.708 21.1218 143.393 21.0841 143.743 20.0565C144.162 19.6695 144.832 21.4677 145.079 19.589C145.433 19.4606 145.628 19.8408 145.853 20.3391C146.109 20.9094 146.608 20.906 146.675 20.1798C146.897 17.7754 147.792 18.606 148.534 18.6214L148.505 18.5751C148.511 18.5512 148.517 18.5255 148.524 18.5015C148.5 18.2241 148.496 17.9107 148.411 17.7377C148.242 17.3952 147.723 17.4431 148.114 16.5937C148.198 16.4104 148.28 16.2238 148.363 16.0388C148.496 16.4789 148.669 16.8951 148.753 17.3661C148.816 17.7223 148.779 18.1401 148.78 18.5358C148.784 18.5426 148.789 18.5495 148.793 18.558C150.027 16.4995 151.626 16.6502 153.105 16.109C153.711 15.8864 154.309 16.8266 154.929 15.2202C155.28 14.3108 155.555 16.4721 155.941 17.1006L155.919 17.0527H155.955C155.951 17.0664 155.948 17.0749 155.944 17.0886C156.293 17.6983 156.641 17.8011 156.989 17.0938C156.985 17.0783 156.982 17.0681 156.978 17.0527H157.017L156.993 17.1023C157.086 17.0972 157.178 17.0938 157.272 17.0886L157.249 17.0424C157.257 17.0578 157.264 17.0715 157.273 17.0869C157.321 15.847 157.982 16.133 158.32 15.6124C158.492 16.5988 157.92 16.8626 157.769 17.5373C157.685 17.539 157.601 17.5425 157.517 17.5442C157.527 17.563 157.537 17.5801 157.547 17.599L157.514 17.5442C157.64 18.3234 157.803 18.9348 158.275 18.1247C158.148 17.9672 158.02 17.8113 157.893 17.6538C158.073 17.6486 158.289 17.4585 158.352 18.022C158.352 18.022 158.333 18.0477 158.313 18.0734L158.352 18.022C159.426 18.0597 159.265 19.8733 159.578 21.0053C159.59 20.9848 159.601 20.9676 159.61 20.9505C159.778 20.584 160.055 20.7262 160.28 20.6234C160.251 20.8871 160.296 21.2143 160.224 21.442L160.26 21.3684C160.26 21.3684 160.259 21.3718 160.258 21.3735C160.263 21.4043 160.266 21.4249 160.27 21.454C160.257 21.4506 160.244 21.4472 160.232 21.4454C160.026 21.9918 159.818 22.5432 159.556 23.242C160.598 23.6033 161.459 22.9405 162.487 22.9851C162.047 22.3925 160.848 22.4507 162.02 21.0618C162.208 21.6492 162.496 21.5379 162.79 21.3958C162.792 21.3975 162.796 21.4009 162.798 21.4026C162.79 21.4249 162.782 21.4472 162.775 21.4677C162.923 21.776 162.803 22.6306 163.211 22.3651C163.474 22.1956 163.88 21.4369 163.762 21.2742C162.83 19.9795 164.035 19.9641 163.954 19.1557C164.409 19.6986 163.87 20.0754 164.035 20.4898C164.917 19.8579 165.719 18.5032 166.732 19.6952C166.732 19.69 166.801 19.6575 166.801 19.6575L166.707 19.6404C167.531 19.2842 168.349 18.8474 169.183 18.6128C169.477 18.5306 169.971 18.7019 169.945 19.5496C169.927 20.1096 169.586 20.1165 169.321 19.8493C169.147 19.8493 168.975 19.8527 168.802 19.8544C168.802 19.8579 168.8 19.8613 168.8 19.8664C168.977 19.8647 169.154 19.8613 169.33 19.8596C169.706 21.0122 170.277 21.0242 170.677 19.8887C171.163 18.5066 171.131 18.6454 172.039 19.3749C172.528 19.7671 173.242 19.9538 173.686 19.3167C174.645 17.9415 175.766 18.7738 176.948 17.7326C176.365 20.7467 175.363 22.5347 174.503 24.499C175.285 24.91 176.128 25.2046 175.648 27.4395C175.497 28.1468 175.703 28.724 176.09 28.9432C176.302 29.0631 176.493 28.9278 176.659 28.551C177.052 27.6639 177.066 27.6861 177.46 28.8353C177.46 28.8267 177.458 28.8216 177.458 28.813C178.222 28.8199 177.623 29.6745 177.686 30.1163C177.763 30.6609 177.308 31.1764 177.751 31.8101C178.347 32.6629 178.201 30.7671 178.623 31.1302C179.163 32.4677 177.967 33.324 178.323 34.6084C178.672 34.2916 178.853 34.8037 179.066 35.1565C179.066 35.1565 179.037 35.0794 179.035 35.0743C179.047 35.0691 179.058 35.0657 179.07 35.0606C179.07 35.0725 179.068 35.0811 179.068 35.0931C180.073 35.7285 181.177 34.5365 182.196 35.8124C182.578 36.2919 182.372 34.6512 182.845 34.3909C183.123 35.5212 183.069 36.2851 182.332 36.3895C181.725 36.4752 181.106 36.5368 180.505 36.4049C179.428 36.1703 179.262 36.9513 179.684 38.5508L179.678 38.5371ZM16.9264 26.179C16.8991 26.1516 16.8718 26.126 16.8435 26.0986C16.8487 26.114 16.8519 26.1328 16.8582 26.1465C16.8708 26.1739 16.9033 26.1688 16.9264 26.179ZM15.1065 34.1066C15.0477 34.1152 14.9889 34.1238 14.9301 34.1323C14.9795 34.1666 15.0277 34.2025 15.076 34.2368C15.0771 34.2368 15.096 34.1529 15.1054 34.1066H15.1065ZM21.6389 24.2455C21.6368 24.2986 21.6861 24.3586 21.7124 24.4151C21.7428 24.3654 21.7953 24.3175 21.7974 24.2644C21.7995 24.2113 21.7501 24.1513 21.7239 24.0948C21.6935 24.1445 21.641 24.1924 21.6389 24.2455ZM21.26 24.9648C21.2296 24.8261 20.9882 24.6822 20.9735 24.7199C20.7782 25.2149 20.6806 25.7441 20.9262 26.3212C21.2505 26.0061 21.3922 25.5711 21.26 24.9648ZM21.4741 29.7532C21.4174 29.6745 21.3628 29.5426 21.303 29.534C21.2558 29.5272 21.2023 29.671 21.1414 29.7618C21.2285 29.8166 21.302 29.8834 21.3786 29.9022C21.4059 29.9091 21.4426 29.8063 21.4741 29.7532ZM21.8247 25.9992C21.7827 25.8913 21.7407 25.7834 21.6987 25.6738C21.6683 25.7321 21.6095 25.7989 21.6137 25.8468C21.6252 25.9941 21.6609 26.1328 21.6882 26.275C21.7333 26.1859 21.7774 26.0951 21.8257 25.9992H21.8247ZM22.3326 22.7744C22.3053 22.7179 22.2791 22.6597 22.2518 22.6032C22.2214 22.6545 22.1689 22.7008 22.1668 22.7556C22.1647 22.8087 22.213 22.9114 22.2413 22.9148C22.2707 22.9183 22.3022 22.8258 22.3326 22.7761V22.7744ZM22.849 25.7543C22.827 25.7047 22.8049 25.655 22.7818 25.6053C22.7556 25.6464 22.7105 25.6858 22.7084 25.7321C22.7063 25.7783 22.7462 25.8656 22.7703 25.8691C22.7944 25.8725 22.8228 25.7954 22.849 25.7543ZM23.8681 25.78C23.8115 25.703 23.7558 25.5728 23.696 25.5642C23.6488 25.5574 23.5963 25.7012 23.5365 25.792C23.6236 25.8468 23.696 25.9102 23.7726 25.929C23.7999 25.9359 23.8356 25.8314 23.8671 25.7783L23.8681 25.78ZM24.9754 25.7903C24.9775 25.7355 24.9303 25.6721 24.904 25.6122C24.8736 25.6636 24.8201 25.7098 24.8169 25.7646C24.8148 25.8194 24.8631 25.8828 24.8883 25.9427C24.9198 25.8913 24.9723 25.8451 24.9754 25.7903ZM25.2735 23.7472C25.1014 23.4663 24.9964 23.1923 24.8558 23.0912C24.7193 22.9936 24.4716 22.9816 24.5577 23.4783C24.6018 23.7335 24.775 23.9544 24.9177 24.0828C24.9775 24.1376 25.1098 23.9116 25.2735 23.7489V23.7472ZM26.3388 22.7813C26.2265 22.5347 26.1646 22.3189 26.068 22.2058C25.8791 21.9866 25.8707 22.3326 25.8633 22.5261C25.8581 22.6494 25.9232 22.884 25.9672 22.8943C26.0712 22.9183 26.1824 22.8361 26.3377 22.7796L26.3388 22.7813ZM27.0903 22.8035C27.0924 22.7487 27.0451 22.6871 27.0199 22.6271C26.9895 22.6768 26.937 22.723 26.9349 22.7778C26.9328 22.8326 26.9801 22.8943 27.0053 22.9525C27.0357 22.9029 27.0882 22.8566 27.0903 22.8018V22.8035ZM27.7315 25.2577C27.6182 25.1892 27.4985 25.0436 27.3936 25.0744C27.3054 25.1001 27.2341 25.3296 27.1092 25.5505C27.2561 25.7132 27.3957 25.941 27.4314 25.893C27.551 25.7338 27.6339 25.4769 27.7305 25.256L27.7315 25.2577ZM35.3891 21.2742C35.4174 21.3307 35.4458 21.4283 35.4752 21.4317C35.5045 21.4335 35.5371 21.3393 35.5675 21.2879C35.5392 21.2314 35.5108 21.1338 35.4815 21.1303C35.4521 21.1286 35.4195 21.2228 35.3891 21.2742ZM33.2585 21.9764C33.4075 22.0038 33.5608 21.925 33.7245 21.8907C33.693 21.6338 33.6762 21.49 33.6584 21.3461C33.5072 21.4198 33.3414 21.4454 33.2081 21.5825C33.0633 21.7297 33.1168 21.9524 33.2585 21.9781V21.9764ZM31.8857 22.3154C31.9508 22.6562 32.2646 22.4816 32.4766 22.2949C32.3916 22.2178 32.316 22.0911 32.2425 22.0945C32.1071 22.1014 31.8133 21.9284 31.8867 22.3137L31.8857 22.3154ZM28.6877 21.4386C28.6856 21.1201 28.5838 21.0276 28.4494 21.0772C28.3959 21.0978 28.3539 21.2348 28.3078 21.3187C28.398 21.4626 28.4883 21.6047 28.5775 21.7486C28.6163 21.6407 28.6541 21.5311 28.6877 21.4386ZM29.4245 24.338C29.3793 24.2404 29.3405 24.0846 29.2975 24.0828C29.2303 24.0777 29.1621 24.1753 29.0939 24.2301C29.1306 24.3243 29.1673 24.4939 29.2051 24.4939C29.2754 24.4939 29.3468 24.3997 29.4245 24.338ZM30.2788 24.2438C30.2463 24.189 30.2137 24.1342 30.1791 24.076C30.114 24.1342 30.0406 24.1993 29.9671 24.2661C30.0007 24.3175 30.0395 24.4219 30.0658 24.4117C30.1403 24.3808 30.2085 24.3038 30.2799 24.2438H30.2788ZM30.5097 22.6254C30.4971 22.5723 30.4845 22.521 30.4719 22.4679C30.4635 22.4901 30.4646 22.509 30.453 22.5347C30.4719 22.5655 30.4908 22.5946 30.5097 22.6254ZM30.8813 22.0911C30.8288 21.7434 30.6283 20.8204 30.2515 21.317C29.8642 21.8256 30.6514 21.9096 30.4772 22.4525C30.643 22.4028 30.9862 22.7778 30.8823 22.0911H30.8813ZM30.9379 23.8259C30.9946 23.8636 31.0513 23.9013 31.109 23.939C31.0943 23.7729 31.1048 23.5297 30.9379 23.8259ZM32.0809 24.3534C31.7303 24.7782 31.4942 23.7968 31.1583 24.0263C31.1174 24.4767 31.0723 24.9837 31.4396 24.9443C31.6768 24.9186 32.1082 25.3245 32.0809 24.3534ZM34.0236 24.165C33.3309 22.9697 32.7568 24.2558 32.1565 24.314C32.7715 24.8912 33.3771 24.8107 34.0236 24.165ZM34.6166 21.8291C34.6943 21.8719 34.7751 21.9592 34.8507 21.9455C34.964 21.925 35.112 21.901 35.0406 21.4711C34.9577 21.4095 34.836 21.2365 34.7478 21.2827C34.6817 21.317 34.6586 21.6373 34.6166 21.8291ZM35.9957 22.6665C35.747 22.622 35.4899 22.4833 35.2757 22.8703C35.0805 23.2231 34.5578 22.7042 34.6229 23.6513C34.6439 23.9527 34.8906 24.3363 35.0721 24.4322C35.5444 24.6805 35.6651 24.1291 35.6903 23.3447C35.6977 23.1084 35.8855 22.8909 35.9957 22.6665ZM36.6307 23.7403C36.6643 23.6633 36.6076 23.444 36.5929 23.2916C36.4082 23.4235 36.2235 23.5554 35.9758 23.7318C36.2623 24.016 36.4649 24.1171 36.6297 23.742L36.6307 23.7403ZM37.6446 21.1937L37.6509 21.1766C37.463 19.6164 36.8417 19.8836 36.6926 20.8289C36.5572 21.6886 36.0891 21.877 36.0272 22.6425C36.595 22.4285 37.1639 22.2264 37.7296 21.9883C37.9038 21.9147 37.8986 21.8702 37.6446 21.192V21.1937ZM39.39 19.7757C39.3879 19.8305 39.4372 19.8887 39.4645 19.9469C39.495 19.8956 39.5474 19.8493 39.5495 19.7945C39.5516 19.7414 39.5023 19.6815 39.475 19.625C39.4446 19.6746 39.391 19.7226 39.39 19.7774V19.7757ZM38.2617 24.4236C38.3488 24.3055 38.4569 24.213 38.5147 24.0554C38.5409 23.9818 38.4695 23.7814 38.4328 23.5862C38.3373 23.7763 38.2428 23.9321 38.1757 24.1205C38.1599 24.165 38.2302 24.3192 38.2607 24.4236H38.2617ZM38.7088 37.6055C38.6217 37.5507 38.5493 37.4873 38.4727 37.4685C38.4454 37.4616 38.4097 37.5661 38.3782 37.6192C38.4349 37.6962 38.4905 37.8264 38.5493 37.835C38.5965 37.8418 38.649 37.6979 38.7088 37.6072V37.6055ZM40.6075 22.4336C41.2551 22.4799 40.3944 21.144 40.8846 20.7313C40.9675 20.6628 40.8793 20.0326 40.6568 20.1011C40.4385 20.1679 40.0827 20.411 40.1782 20.882C40.4479 22.2076 40.1331 21.7469 39.6923 21.7263C39.1633 21.7023 39.1213 20.5652 38.5682 20.4984C38.6417 23.6102 39.8424 22.3754 40.6085 22.4302L40.6075 22.4336ZM41.1407 23.8328C40.4333 22.7984 39.8151 23.8037 39.1392 23.8328H41.1407ZM46.7862 21.7623C46.8135 21.8171 46.8408 21.9113 46.8702 21.913C46.8985 21.9147 46.93 21.8239 46.9667 21.7606C46.9363 21.7092 46.9059 21.6218 46.8754 21.6218C46.846 21.6218 46.8156 21.7109 46.7862 21.7623ZM42.4778 19.4588C41.8502 19.8133 41.2362 20.1901 41.2918 21.6355C41.3138 22.2058 41.5342 22.5809 41.8061 22.4713C42.7643 22.0877 41.8323 20.2072 42.4778 19.4588ZM43.0257 23.6085C43.0351 23.4749 42.9763 23.3242 42.949 23.1803C42.7717 23.3841 42.5943 23.5879 42.4169 23.7917C42.4883 23.8551 42.5586 23.9184 42.631 23.9784C42.7948 23.9715 42.9931 24.0623 43.0257 23.6085ZM43.2366 22.2572C43.1579 22.062 43.1233 21.8959 43.0592 21.8325C42.9113 21.6852 42.8262 21.8753 42.8063 22.1202C42.7979 22.2195 42.8787 22.4422 42.9144 22.4387C43.0162 22.4285 43.1159 22.3326 43.2366 22.2572ZM43.2891 20.8186C43.1558 20.7022 43.0267 20.5292 42.8861 20.4898C42.8073 20.4676 42.7108 20.6628 42.6216 20.7604C42.7213 20.8597 42.821 20.9574 42.9123 21.0481C43.0582 20.9591 43.1726 20.8889 43.288 20.8186H43.2891ZM44.2904 23.1991C43.858 22.884 43.5756 22.9885 43.4297 23.8585C43.7792 24.0863 44.0217 23.8362 44.2904 23.1991ZM44.0763 34.5725C44.1571 34.7095 44.2284 34.8756 44.3208 34.9766C44.43 35.0982 44.5507 35.1308 44.5937 34.6872C44.5118 34.6136 44.4184 34.4868 44.3166 34.4526C44.2421 34.4286 44.156 34.5262 44.0752 34.5708L44.0763 34.5725ZM44.622 36.4563C44.5129 36.4717 44.409 36.6104 44.304 36.6944C44.3701 36.8759 44.4247 37.1773 44.5055 37.2047C44.5874 37.2321 44.6965 36.9906 44.7868 36.8759C44.8886 36.482 44.7291 36.4392 44.6231 36.4546L44.622 36.4563ZM44.8193 22.2795C44.79 22.2213 44.7616 22.1134 44.7312 22.1116C44.6556 22.1065 44.5779 22.1493 44.5013 22.1733C44.5339 22.2692 44.5653 22.3651 44.6 22.4679C44.6724 22.4045 44.7459 22.3411 44.8183 22.2778L44.8193 22.2795ZM44.9516 20.7364C44.7385 20.6885 44.5192 20.3802 44.2862 20.7536C44.5265 21.2245 44.7396 20.8118 44.9516 20.7364ZM45.0712 20.7347C45.0712 20.7347 45.0733 20.7347 45.0733 20.733C45.0691 20.733 45.066 20.733 45.0618 20.733C45.0649 20.733 45.0681 20.733 45.0712 20.733V20.7347ZM45.5383 20.1833C45.5393 20.149 45.405 20.0685 45.3326 20.06C45.0618 20.0257 44.939 20.2072 45.0765 20.7296C45.1867 20.4042 45.5173 20.7399 45.5393 20.185L45.5383 20.1833ZM46.1092 23.8551C46.0704 23.7609 46.0337 23.5913 45.9938 23.5879C45.9256 23.5828 45.8553 23.6821 45.7849 23.7386C45.8185 23.8396 45.8532 23.9407 45.8888 24.0469C45.9644 23.9818 46.0368 23.9184 46.1092 23.8568V23.8551ZM46.4021 22.3326C46.2373 21.6099 45.9791 21.3016 45.5918 21.7349C45.5309 21.8034 45.5026 22.2572 45.5414 22.3069C45.8154 22.6545 46.1103 22.5449 46.401 22.3326H46.4021ZM46.9762 40.1367C46.9038 40.0819 46.8334 40.0082 46.7579 39.9808C46.7316 39.9723 46.6938 40.0802 46.6613 40.1367C46.6938 40.1915 46.7306 40.3011 46.7568 40.2908C46.8324 40.2651 46.9027 40.1915 46.9762 40.1367ZM48.7856 21.7332C48.4498 21.4591 48.1485 21.2125 47.6521 20.8066C47.8298 21.9815 48.2077 22.2903 48.7856 21.7332ZM49.3261 22.2778L49.2632 22.1973L49.2537 22.324L49.3261 22.2795V22.2778ZM50.9215 22.4165C50.6087 22.5055 50.446 21.0601 50.0514 22.0894C49.8425 22.634 50.0367 22.795 50.3012 23.0861C50.8522 23.6907 50.9645 23.3413 50.9215 22.4165ZM53.1024 22.509C52.9954 22.2281 52.6165 22.1887 52.7886 21.6578C52.2638 22.5021 51.4819 21.3855 50.9771 22.3788C51.6719 22.9697 52.3468 24.4391 53.1014 22.509H53.1024ZM53.5569 34.7112C53.4992 34.6341 53.4435 34.504 53.3837 34.4954C53.3365 34.4885 53.284 34.6341 53.2252 34.7249C53.3123 34.778 53.3858 34.8431 53.4635 34.8619C53.4908 34.8687 53.5264 34.7643 53.5579 34.7095L53.5569 34.7112ZM56.3938 22.6631C55.811 22.3057 55.3541 22.5501 55.0231 23.3961C55.5007 23.1409 55.8806 22.9371 56.3938 22.6631ZM58.4908 21.2348C58.4887 21.2896 58.537 21.3495 58.5633 21.4078C58.5937 21.3564 58.6241 21.3067 58.6535 21.2553C58.6273 21.1971 58.601 21.1389 58.5748 21.0807C58.5444 21.132 58.4919 21.18 58.4908 21.2348ZM58.5821 24.2901C58.5255 24.213 58.4698 24.0811 58.41 24.0743C58.3628 24.0674 58.3103 24.2113 58.2505 24.3038C58.3366 24.3586 58.41 24.4236 58.4866 24.4425C58.5139 24.4493 58.5496 24.3449 58.5811 24.2918L58.5821 24.2901ZM58.8256 22.6374C58.6693 22.6203 58.5517 22.5672 58.4415 22.6049C58.3114 22.6494 58.3051 22.8087 58.4279 22.908C58.4992 22.9662 58.5916 22.9816 58.6672 22.9525C58.7154 22.9337 58.7501 22.795 58.8256 22.6374ZM59.2906 21.2793C59.2171 21.2142 59.1321 20.8769 59.0807 21.3239C59.151 21.3102 59.2203 21.2947 59.2906 21.2793ZM59.3273 21.2725C59.3252 20.9505 59.3242 20.6285 59.3221 20.3066C59.2318 20.0976 59.1416 19.8887 59.0523 19.6798C59.024 19.7329 58.9957 19.7859 58.9673 19.839C59.0838 19.9897 59.1993 20.1422 59.3158 20.2929C59.3179 20.62 59.321 20.9471 59.3231 21.2742C59.3242 21.2742 59.3263 21.2742 59.3273 21.2742V21.2725ZM60.4797 21.7914C60.4336 21.4352 60.2856 21.2639 60.1198 21.3102C60.0148 21.3393 59.9245 21.5773 59.828 21.7229C59.9602 21.8342 60.0946 21.9404 60.2258 22.0568C60.38 22.1939 60.4567 22.0877 60.4797 21.7931V21.7914ZM61.2806 22.2726C61.2522 22.2161 61.226 22.1202 61.1966 22.1168C61.1672 22.1134 61.1357 22.2058 61.1053 22.2555C61.1336 22.3103 61.1599 22.4079 61.1892 22.4113C61.2186 22.4148 61.2501 22.3223 61.2806 22.2726ZM62.0457 23.7694L61.9838 23.6889L61.9743 23.814L62.0457 23.7694ZM63.1288 20.4521C62.6513 21.1509 62.1443 20.8854 61.925 21.9181C62.4403 21.9284 62.7457 21.4866 63.1288 20.4521ZM65.8073 23.3961C65.4389 23.9749 65.0107 22.8395 64.6087 23.6102C65.0715 24.5589 65.4578 24.5127 65.8073 23.3961ZM67.5642 23.891C67.454 23.8362 67.3438 23.7814 67.2336 23.7266C67.2368 23.8636 67.2095 24.0572 67.2473 24.1274C67.4393 24.4904 67.4561 23.9801 67.5642 23.891ZM68.0859 23.8773C68.0722 23.8037 68.0691 23.6872 68.0428 23.6615C67.8739 23.4971 67.7616 23.6855 67.6493 23.8739C67.7951 23.8739 67.94 23.8773 68.0859 23.8773ZM71.5851 21.8034C71.5326 21.7315 71.4822 21.6116 71.4287 21.6064C71.3846 21.603 71.3363 21.7349 71.2818 21.8188C71.3626 21.8702 71.4308 21.9318 71.5032 21.9507C71.5263 21.9575 71.5578 21.8548 71.5861 21.8034H71.5851ZM71.9167 23.915C71.9409 23.9253 71.9766 23.8397 72.007 23.7968C71.964 23.7163 71.9209 23.6359 71.8769 23.5536C71.8275 23.6239 71.7782 23.6941 71.7278 23.7643C71.7897 23.8174 71.8496 23.8859 71.9157 23.915H71.9167ZM72.1445 41.6369C72.1466 41.5838 72.0973 41.5239 72.071 41.4674C72.0406 41.517 71.9881 41.565 71.986 41.6181C71.9839 41.6712 72.0332 41.7311 72.0595 41.7876C72.0899 41.7379 72.1424 41.69 72.1445 41.6352V41.6369ZM78.0839 20.769C78.107 20.8204 78.1291 20.9077 78.1542 20.9111C78.1794 20.9163 78.2078 20.8358 78.2351 20.7912C78.212 20.7399 78.1889 20.6885 78.1658 20.6388C78.1385 20.6816 78.1112 20.7262 78.0839 20.769ZM76.5463 19.8579C76.6198 19.911 76.6943 19.9623 76.7709 20.0154C76.8465 19.9504 76.921 19.8836 76.9955 19.8185C76.9273 19.7363 76.8538 19.5753 76.7919 19.5907C76.7048 19.6113 76.6271 19.7637 76.5453 19.8596L76.5463 19.8579ZM75.4905 21.8907C75.544 22.0654 75.6741 22.2213 75.7801 22.2521C75.8641 22.2761 75.9659 22.0962 76.0499 22.0175C76.0058 21.5003 75.8137 21.5756 75.6699 21.5739C75.5944 21.5739 75.3645 21.4883 75.4905 21.8924V21.8907ZM73.9151 22.3788C73.9592 22.3737 73.997 22.1733 74.0368 22.0568C74.0054 21.9353 73.9739 21.8137 73.9434 21.6938C73.8857 21.7777 73.8038 21.8411 73.7745 21.9507C73.7062 22.2024 73.7587 22.3959 73.9161 22.3788H73.9151ZM72.7197 19.9658C72.7805 19.9623 72.8393 19.8373 72.9023 19.7603C72.8215 19.7003 72.749 19.6301 72.6735 19.601C72.6472 19.5907 72.6105 19.6866 72.578 19.7329C72.6252 19.8168 72.6735 19.9675 72.7197 19.9658ZM72.8466 21.7366L72.8771 21.8719L72.9191 21.7469L72.8466 21.7366ZM73.9361 23.206C73.6254 24.0143 73.0849 23.1717 72.7585 23.8688C73.1342 23.5297 73.7419 24.8415 73.9361 23.206ZM74.1712 23.2745C74.1061 23.2539 74.04 23.2334 73.9749 23.2128C74.0347 23.295 74.0715 23.629 74.1712 23.2745ZM74.9667 19.4263C74.7117 19.9161 74.2635 19.154 74.0221 19.9349C74.3853 19.9949 74.7337 20.2449 74.9667 19.4263ZM74.9416 23.3464C74.9909 23.3773 75.0402 23.4098 75.0885 23.4406C75.0812 23.2933 75.0885 23.105 74.9416 23.3464ZM77.1446 24.1085C76.4949 23.9338 75.8452 23.7592 75.1945 23.5862C75.7067 25.2149 76.4676 24.213 77.1446 24.1085ZM77.5969 21.7982C77.5675 21.7366 77.535 21.6184 77.5109 21.6236C77.4332 21.6424 77.3587 21.7075 77.2831 21.7537C77.3083 21.8205 77.3335 21.889 77.3618 21.9626C77.4395 21.9078 77.5182 21.853 77.5969 21.7982ZM80.0634 23.182C79.2363 23.7386 78.636 22.461 77.8215 23.7009C78.637 23.903 79.1755 25.3347 80.0634 23.182ZM80.3111 22.2418C80.2324 22.1836 80.161 22.1134 80.0865 22.086C80.0613 22.0757 80.0256 22.1699 79.9941 22.2161C80.0403 22.2966 80.0875 22.4456 80.1316 22.4439C80.1914 22.4405 80.2481 22.3189 80.3111 22.2435V22.2418ZM81.9662 24.2627C81.9379 24.2061 81.9095 24.1513 81.8823 24.0948C81.8518 24.1462 81.8203 24.1976 81.7899 24.2472C81.8182 24.3038 81.8455 24.4014 81.8749 24.4031C81.9043 24.4048 81.9358 24.3123 81.9662 24.2609V24.2627ZM82.4606 23.7677C82.4364 23.7146 82.4123 23.6615 82.3881 23.6085C82.3588 23.6513 82.3304 23.6941 82.301 23.7386C82.3252 23.7917 82.3472 23.8825 82.3735 23.8876C82.3997 23.8927 82.4312 23.8123 82.4606 23.7694V23.7677ZM82.746 21.9609C81.9946 20.8683 81.5915 21.2365 81.1791 22.1459C81.771 22.9029 82.1341 21.7537 82.746 21.9609ZM84.4873 22.2058C84.5355 22.2915 84.5849 22.4473 84.6331 22.4456C84.6951 22.4422 84.7549 22.3137 84.8189 22.235C84.736 22.1733 84.6615 22.0997 84.5828 22.0688C84.5576 22.0586 84.5187 22.1579 84.4873 22.2076V22.2058ZM85.5861 24.6052C85.2524 24.1616 84.9428 23.4714 84.2899 24.2901C84.8504 24.4271 85.2177 24.5161 85.5861 24.6052ZM85.8685 21.1714H84.8063C85.1327 21.5516 85.4476 22.312 85.8685 21.1714ZM86.1875 23.7677C86.1896 23.7146 86.1403 23.6547 86.1141 23.5982C86.0836 23.6478 86.0532 23.6975 86.0228 23.7489C86.049 23.8054 86.0763 23.8619 86.1025 23.9201C86.133 23.8705 86.1854 23.8225 86.1875 23.7694V23.7677ZM87.5509 19.0906C87.4176 19.1557 87.2854 19.2191 87.1531 19.2842C87.1804 19.3441 87.2035 19.4434 87.236 19.4554C87.4134 19.5256 87.5247 19.4126 87.5509 19.0906ZM87.785 20.7792C87.7136 20.7244 87.6443 20.6525 87.5698 20.6268C87.5436 20.6183 87.5068 20.7262 87.4743 20.7827C87.5068 20.8375 87.5436 20.9454 87.5698 20.9351C87.6443 20.9077 87.7136 20.8358 87.785 20.7792ZM89.1032 22.598C89.035 22.5552 88.9521 22.4473 88.9027 22.4867C88.8345 22.5415 88.7915 22.7076 88.738 22.8275C88.8188 22.8755 88.908 22.9816 88.9783 22.9508C89.0318 22.9268 89.0623 22.7248 89.1021 22.5997L89.1032 22.598ZM90.8864 24.1513C90.7342 24.1085 90.6167 24.0434 90.5023 24.0554C90.4508 24.0606 90.4036 24.2164 90.3532 24.3038C90.4676 24.3586 90.581 24.4442 90.6964 24.4545C90.7457 24.4579 90.7972 24.3003 90.8864 24.1531V24.1513ZM91.1603 21.6081C91.0774 21.6236 90.9934 21.6373 90.9105 21.6527C90.9263 21.74 90.942 21.8291 90.9578 21.9164C91.0249 21.8137 91.0932 21.7109 91.1614 21.6099L91.1603 21.6081ZM91.386 21.168C91.3587 21.2691 91.3314 21.3684 91.3041 21.4694C91.3933 21.4694 91.5056 21.5105 91.386 21.168ZM92.2214 21.2896C92.2949 21.3581 92.3684 21.4797 92.4408 21.4763C92.5122 21.4746 92.5825 21.3444 92.6601 21.2639C92.5783 21.192 92.5038 21.0738 92.4313 21.079C92.36 21.0841 92.2907 21.2142 92.2214 21.2896ZM92.7263 24.2404C92.3043 23.9475 92.0231 23.903 91.7365 24.2661C92.0294 24.5829 92.3096 24.5898 92.7263 24.2404ZM92.7651 22.8035C92.7074 22.7248 92.6528 22.5946 92.593 22.586C92.5457 22.5792 92.4922 22.723 92.4334 22.8155C92.5205 22.8703 92.594 22.9354 92.6706 22.9542C92.6979 22.9611 92.7336 22.8566 92.7651 22.8035ZM93.441 22.7573C93.4683 22.8138 93.4935 22.9131 93.5229 22.9166C93.5512 22.92 93.5837 22.8275 93.6131 22.7778C93.5869 22.7213 93.5607 22.622 93.5323 22.6186C93.5029 22.6151 93.4714 22.7076 93.441 22.7573ZM94.0204 23.9938C93.7979 24.0366 93.5743 24.0811 93.2206 24.1496C93.6478 24.6891 93.843 24.3603 94.0204 23.9938ZM94.0529 23.927C94.0351 23.8996 94.0162 23.8705 93.9983 23.8431C94.0078 23.8893 94.0172 23.9356 94.0267 23.9801C94.0351 23.963 94.0445 23.9441 94.0529 23.927ZM96.7335 24.6052C96.7335 24.6052 96.7355 24.6069 96.7377 24.6086C96.8279 24.3911 96.8363 24.1633 96.7639 23.927C96.5372 24.1822 95.9767 23.6821 96.131 24.7114C96.2255 25.3433 96.5288 24.7319 96.7345 24.6052H96.7335ZM97.803 24.2472C97.4639 24.3825 97.1249 24.5161 96.787 24.6514C97.1575 24.9665 97.5238 25.2286 97.803 24.2472ZM99.0939 23.2368C99.0939 23.2368 99.0939 23.2317 99.0939 23.23C99.0551 23.2163 99.0173 23.2026 98.9795 23.1889C99.0173 23.2043 99.0551 23.2214 99.0929 23.2368H99.0939ZM104.219 22.2812C104.197 22.1339 104.156 21.9969 104.12 21.853C104.086 21.9164 104.025 21.9883 104.03 22.0294C104.049 22.1699 104.091 22.3 104.123 22.4336C104.157 22.3822 104.223 22.3137 104.218 22.2812H104.219ZM105.242 21.9198C105.187 21.8582 105.085 21.6595 104.998 21.6784C104.925 21.6955 104.871 21.9695 104.808 22.1305C104.895 22.2418 104.98 22.4319 105.07 22.4422C105.175 22.4542 105.32 22.36 105.242 21.9198ZM105.797 23.7711C105.8 23.7181 105.75 23.6581 105.723 23.6016C105.692 23.6513 105.64 23.6992 105.638 23.7523C105.636 23.8071 105.685 23.8653 105.712 23.9236C105.743 23.8722 105.795 23.8259 105.797 23.7711ZM106.069 22.2606C106.044 22.2024 106.018 22.1425 105.992 22.0842C105.961 22.1339 105.909 22.1801 105.907 22.235C105.904 22.2898 105.952 22.3514 105.977 22.4096C106.007 22.36 106.038 22.3103 106.068 22.2589L106.069 22.2606ZM106.327 23.2745C106.33 23.2214 106.28 23.1615 106.253 23.1049C106.222 23.1546 106.169 23.2026 106.168 23.2574C106.166 23.3122 106.215 23.3704 106.242 23.4286C106.273 23.3772 106.325 23.331 106.327 23.2762V23.2745ZM109.574 22.7128C109.489 22.6477 109.411 22.5398 109.335 22.5432C109.236 22.5484 109.054 22.5364 109.171 22.8909C109.198 22.9765 109.328 22.9885 109.403 22.9611C109.464 22.9388 109.513 22.8052 109.574 22.7111V22.7128ZM110.168 20.5172C109.902 20.6097 109.688 20.6851 109.478 20.757C109.697 20.7947 109.948 21.2913 110.168 20.5172ZM113.289 18.755C113.3 18.7738 113.311 18.7824 113.322 18.8029C113.333 18.7601 113.348 18.719 113.364 18.6796C113.338 18.7053 113.314 18.731 113.289 18.755ZM110.573 22.2829C110.547 22.2264 110.52 22.1271 110.492 22.1236C110.464 22.1202 110.409 22.211 110.408 22.2641C110.406 22.3189 110.455 22.3771 110.483 22.4353C110.513 22.3857 110.544 22.3343 110.574 22.2846L110.573 22.2829ZM111.159 23.1392C111.126 23.1255 111.086 23.1803 111.049 23.2043C111.057 23.2591 111.056 23.3447 111.075 23.3636C111.107 23.3978 111.16 23.4252 111.189 23.3978C111.292 23.3002 111.28 23.1923 111.16 23.1392H111.159ZM112.366 20.8443C112.439 20.8255 112.512 20.8049 112.586 20.7861C112.519 20.7296 112.453 20.6731 112.385 20.6166C112.379 20.6919 112.372 20.769 112.366 20.8443ZM112.687 23.2779C112.689 23.2248 112.639 23.1649 112.612 23.1084C112.582 23.158 112.529 23.206 112.527 23.2608C112.525 23.3156 112.574 23.3738 112.602 23.4321C112.632 23.3807 112.685 23.3344 112.687 23.2796V23.2779ZM112.637 19.738C112.392 19.7894 112.622 20.411 112.596 20.781C112.617 20.6303 112.646 20.4813 112.659 20.3271C112.678 20.1096 112.967 19.6678 112.637 19.7363V19.738ZM113.007 21.1372C112.956 21.1389 112.907 21.1406 112.857 21.144C112.87 21.2211 112.884 21.2982 112.898 21.3752C112.933 21.2965 112.97 21.2177 113.006 21.1389L113.007 21.1372ZM113.66 22.3017C113.64 22.2469 113.625 22.1596 113.598 22.1442C113.563 22.1236 113.519 22.1579 113.479 22.1682C113.505 22.2504 113.527 22.3394 113.562 22.4045C113.568 22.4182 113.625 22.3377 113.659 22.3017H113.66ZM114.492 23.307L114.469 23.1735L114.426 23.2882L114.492 23.3053V23.307ZM114.779 21.8085C114.728 21.7383 114.678 21.6184 114.624 21.6133C114.58 21.6099 114.532 21.7417 114.478 21.8239C114.558 21.8753 114.626 21.9353 114.698 21.9558C114.721 21.9627 114.751 21.8599 114.779 21.8085ZM116.146 23.814C116.121 23.754 116.096 23.6941 116.07 23.6341C116.039 23.6838 115.986 23.7283 115.983 23.7831C115.98 23.8379 116.027 23.9013 116.053 23.9612C116.084 23.9116 116.115 23.8636 116.146 23.814ZM118.088 20.5378C118.461 21.2571 118.843 20.9659 119.197 20.9437C118.922 20.1798 118.612 19.7414 118.088 20.5378ZM116.957 22.1562C116.8 22.4285 116.398 22.4285 116.609 23.0793C116.733 23.4612 116.995 23.7095 117.218 23.9373C117.274 23.9938 117.48 23.7848 117.517 23.6187C117.732 22.646 117.037 22.7881 116.957 22.1545V22.1562ZM117.069 21.7092C117.05 21.7982 117.031 21.8873 117.013 21.9781C117.09 21.9712 117.184 21.9883 117.069 21.7092ZM117.567 20.346C117.208 19.255 116.89 19.5547 116.532 20.4008C116.908 20.548 117.232 20.644 117.567 20.346ZM118.285 21.7314C118.224 21.6698 117.976 21.9318 117.982 22.0055C118.033 22.7676 118.18 23.4115 118.697 23.4577C118.953 22.5295 118.637 22.0894 118.286 21.7332L118.285 21.7314ZM119.677 41.4708C119.544 41.2396 119.463 40.9844 119.384 40.9878C119.292 40.9913 119.167 41.1848 119.118 41.3578C119.028 41.6831 119.195 41.7996 119.31 41.7979C119.41 41.7979 119.51 41.6283 119.677 41.4708ZM120.035 22.8035L120.004 22.6734L119.964 22.7933L120.035 22.8035ZM128.336 20.4145C128.336 20.4145 128.333 20.4179 128.332 20.4196C128.16 20.6422 128.02 20.906 128.055 21.3393C128.056 21.3547 128.238 21.3889 128.277 21.3119C128.411 21.0379 128.5 20.7262 128.337 20.4145H128.336ZM128.566 20.024C128.49 20.1542 128.412 20.2843 128.336 20.4145C128.404 20.5737 128.49 20.596 128.566 20.4196C128.601 20.3408 128.569 20.1593 128.566 20.024ZM129.344 19.762L129.263 19.7448L129.295 19.9041L129.344 19.762ZM130.129 20.8289C130.06 20.7844 129.99 20.7381 129.872 20.6628C129.792 20.8649 129.704 21.0892 129.617 21.3136C129.692 21.3615 129.802 21.4917 129.835 21.442C129.949 21.2725 130.034 21.0379 130.129 20.8289ZM130.912 19.9075C130.823 19.7568 130.771 19.5907 130.72 19.5941C130.6 19.6027 130.483 19.6918 130.364 19.7483C130.414 19.839 130.462 20.0017 130.513 20.0069C130.633 20.0171 130.756 19.9521 130.912 19.9075ZM131.461 21.8496C131.366 21.6236 131.298 21.4694 131.234 21.3119C131.146 21.0944 131.047 20.5172 130.917 21.0567C130.837 21.3941 131.093 21.8685 131.461 21.8496ZM131.716 18.1641C131.552 18.1487 131.428 18.0973 131.311 18.1367C131.172 18.1847 131.166 18.3491 131.296 18.4536C131.372 18.5135 131.471 18.5323 131.55 18.4998C131.601 18.4792 131.637 18.3302 131.715 18.1641H131.716ZM134.035 18.397C134.03 18.4364 134.025 18.4758 134.021 18.5169C134.03 18.5152 134.041 18.5084 134.05 18.5084C134.045 18.4707 134.04 18.4347 134.036 18.397H134.035ZM133.981 18.5272C133.776 18.4553 133.572 18.3816 133.33 18.296C133.544 19.0684 133.773 18.6197 133.981 18.5272ZM134.164 20.7964C134.135 20.7399 134.109 20.6405 134.08 20.6371C134.05 20.6337 134.018 20.7262 133.986 20.7775C134.015 20.8341 134.042 20.8923 134.07 20.9488C134.102 20.8974 134.133 20.8478 134.164 20.7964ZM134.798 18.8509C134.79 18.8029 134.79 18.7293 134.774 18.7122C134.744 18.6813 134.705 18.6848 134.67 18.6728C134.679 18.7533 134.688 18.8355 134.699 18.916C134.732 18.8937 134.764 18.8714 134.798 18.8509ZM137.374 19.5291C137.374 19.5291 137.375 19.5273 137.376 19.5256L137.374 19.5291ZM137.415 21.6355C137.377 21.5088 137.34 21.3855 137.304 21.2708C137.302 21.2708 137.299 21.2708 137.297 21.2708C137.358 21.3684 137.135 21.7914 137.415 21.6355ZM137.542 21.2502C137.466 21.2571 137.39 21.2622 137.313 21.2691C137.363 21.353 137.413 21.4352 137.462 21.5191C137.489 21.43 137.515 21.3393 137.542 21.2502ZM139.188 22.2898C139.164 22.223 139.134 22.0962 139.116 22.1014C139.037 22.1236 138.961 22.187 138.884 22.235C138.912 22.2949 138.942 22.4113 138.968 22.4062C139.042 22.3925 139.114 22.3326 139.188 22.2898ZM141.048 21.2416C141.05 21.1971 141.011 21.1423 140.99 21.0927C140.964 21.1338 140.92 21.1714 140.918 21.2177C140.916 21.2639 140.954 21.317 140.975 21.3667C141.002 21.3256 141.046 21.2879 141.048 21.2416ZM140.941 19.7945C140.867 19.8031 140.782 19.9264 140.732 20.0428C140.635 20.2655 140.67 20.495 140.819 20.5343C140.912 20.5583 141.018 20.4213 141.099 20.3682C141.112 20.0291 141.114 19.774 140.941 19.7945ZM141.56 23.7711C141.539 23.7232 141.517 23.6752 141.496 23.6273C141.471 23.6667 141.427 23.7044 141.425 23.7489C141.422 23.7934 141.46 23.8773 141.483 23.8825C141.506 23.8859 141.534 23.8122 141.56 23.7729V23.7711ZM142.593 23.8397C142.611 23.742 142.628 23.6444 142.646 23.5468C142.563 23.5656 142.451 23.5502 142.593 23.8397ZM143.11 23.319C143.092 23.2522 143.08 23.1375 143.055 23.1255C142.897 23.0536 142.782 23.1392 142.727 23.4132C142.855 23.3824 142.982 23.3499 143.11 23.319ZM143.636 22.1904L143.541 22.2589L143.626 22.36L143.635 22.1921L143.636 22.1904ZM144.67 22.0723C144.155 22.1973 144.288 22.9834 144.148 23.4047C144.608 23.2574 144.655 22.735 144.67 22.0723ZM147.197 22.0911C146.959 22.6169 146.779 23.0142 146.602 23.4166C147.126 23.6701 147.316 23.2916 147.197 22.0911ZM153.092 17.9535C153.089 17.9792 153.086 18.0049 153.083 18.0305C153.09 18.034 153.099 18.034 153.104 18.0391C153.1 18.01 153.096 17.9826 153.091 17.9535H153.092ZM148.483 23.3584C148.367 23.1837 148.313 23.0313 148.259 23.033C148.145 23.0364 148.031 23.1186 147.918 23.1683C147.965 23.2625 148.009 23.4235 148.062 23.4338C148.174 23.456 148.291 23.3995 148.483 23.3584ZM149.257 22.6991C149.254 22.6426 149.223 22.5929 149.202 22.5415V22.8207C149.222 22.7796 149.259 22.735 149.257 22.6991ZM150.258 20.3888C150.103 20.1798 149.964 19.8938 149.791 19.7774C149.482 19.5702 149.531 20.2398 149.378 20.4436C149.36 20.9214 149.533 20.9899 149.698 20.8974C149.894 20.7861 150.072 20.5635 150.258 20.3888ZM151.651 17.9072C151.205 17.0441 150.799 17.6555 150.454 18.3525C150.456 18.3508 150.459 18.3525 150.461 18.3508C150.458 18.3525 150.455 18.3559 150.452 18.3576V18.3542C150.228 17.9655 150 17.9483 149.651 18.481C150.355 18.481 150.529 20.8854 151.406 19.3989C151.627 19.0238 151.89 18.3731 151.65 17.9089L151.651 17.9072ZM153.314 22.2487C153.28 22.211 153.244 22.1356 153.213 22.1442C153.018 22.1921 153.121 22.4679 153.111 22.6443C153.098 22.6563 153.085 22.6682 153.071 22.6802C153.078 22.6974 153.084 22.7145 153.09 22.7299C153.165 22.5689 153.239 22.4096 153.315 22.2487H153.314ZM155.779 19.0307C155.778 19.2739 155.857 19.2961 155.94 19.0855C155.981 18.981 156.014 18.8646 156.052 18.755C156.014 18.7378 155.976 18.7207 155.931 18.7002C155.879 18.8081 155.779 18.9177 155.779 19.0307ZM154.925 17.3472L154.999 17.3369C154.997 17.3267 154.993 17.3215 154.991 17.3112L154.924 17.3472H154.925ZM154.732 18.3114C154.964 18.7978 155.28 18.2001 155.354 17.9312C155.5 17.4106 155.072 17.6743 155.001 17.3421C154.869 17.6418 154.578 17.9877 154.732 18.3114ZM153.865 21.7691C153.934 21.8222 154 21.8941 154.073 21.9181C154.099 21.9267 154.136 21.8239 154.167 21.7726C154.137 21.7195 154.101 21.6167 154.076 21.6253C154.003 21.6492 153.935 21.7177 153.865 21.7708V21.7691ZM154.204 23.1872C154.119 23.1529 154.04 23.0741 153.978 23.1067C153.857 23.1683 153.857 23.307 153.97 23.4166C154.001 23.4475 154.056 23.4697 154.081 23.4406C154.127 23.3824 154.16 23.2848 154.205 23.1872H154.204ZM154.579 21.3256C154.912 21.1149 155.152 20.9625 155.674 20.6337C155.11 20.6936 154.784 20.286 154.579 21.3256ZM155.089 39.1554C155.062 39.0988 155.035 39.0406 155.008 38.9841C154.977 39.0338 154.947 39.0851 154.917 39.1348C154.944 39.1913 154.969 39.2906 154.997 39.2941C155.026 39.2975 155.058 39.205 155.089 39.1554ZM155.986 22.9851C155.997 22.8686 156.007 22.7504 156.018 22.634C155.935 22.6151 155.848 22.5621 155.769 22.5877C155.712 22.6066 155.665 22.7299 155.579 22.8583C155.738 22.908 155.862 22.9474 155.986 22.9868V22.9851ZM156.149 39.1536C156.121 39.0971 156.095 39.0389 156.068 38.9824C156.037 39.0338 155.985 39.08 155.983 39.1348C155.981 39.1879 156.029 39.2906 156.057 39.2941C156.087 39.2975 156.118 39.205 156.149 39.1554V39.1536ZM156.92 20.0377C156.476 20.1216 156.215 20.4042 156.223 21.4352C156.554 21.0413 156.873 20.8649 156.92 20.0377ZM156.94 21.7657C156.942 21.7109 156.894 21.6492 156.868 21.591C156.837 21.6424 156.785 21.6903 156.783 21.7434C156.781 21.7982 156.829 21.8599 156.855 21.9181C156.886 21.8667 156.938 21.8188 156.94 21.7657ZM158.183 20.6988C158.168 20.6988 158.17 20.6902 158.159 20.6885C158.166 20.6919 158.175 20.6953 158.183 20.6988ZM158.099 22.9148C158.333 22.8669 158.552 22.5723 158.825 22.3463C158.724 22.0945 158.671 21.8119 158.578 21.7571C158.313 21.6013 158.069 21.8548 157.919 22.2213C157.814 22.4781 157.898 22.956 158.098 22.9148H158.099ZM159.027 39.6777C158.969 39.6006 158.912 39.4705 158.852 39.4636C158.805 39.4568 158.753 39.6023 158.694 39.6948C158.781 39.7479 158.856 39.8113 158.933 39.8301C158.96 39.837 158.996 39.7308 159.028 39.6777H159.027ZM159.394 38.0816C159.34 38.0525 159.166 38.3659 159.162 38.5285C159.147 39.2581 159.509 39.3711 159.815 39.7496C159.957 38.7632 159.777 38.2871 159.394 38.0816ZM160.373 38.1638C160.352 38.1158 160.332 38.0336 160.309 38.0302C160.286 38.0268 160.241 38.097 160.239 38.1398C160.237 38.1826 160.276 38.234 160.297 38.2819C160.322 38.2425 160.348 38.2032 160.373 38.1638ZM161.675 38.7409C161.683 38.7084 161.66 38.6262 161.639 38.5953C161.622 38.5714 161.588 38.5902 161.56 38.5834C161.546 38.633 161.513 38.6947 161.519 38.7289C161.562 38.9379 161.622 38.943 161.675 38.7409ZM171.373 40.1161C171.961 40.361 172.35 40.498 172.736 40.099C172.35 39.7993 171.959 39.9175 171.373 40.1161ZM170.745 42.125C170.734 42.1438 170.725 42.1592 170.714 42.1798C170.722 42.1832 170.729 42.1866 170.735 42.1901C170.739 42.1695 170.742 42.1473 170.745 42.1267V42.125ZM168.456 40.1298C168.477 40.1778 168.497 40.26 168.521 40.2651C168.545 40.2703 168.573 40.1983 168.6 40.1606C168.579 40.1127 168.559 40.0305 168.535 40.0254C168.51 40.0202 168.482 40.0921 168.456 40.1298ZM167.16 40.087C167.204 40.1658 167.25 40.3114 167.292 40.3062C167.35 40.3011 167.405 40.1829 167.47 40.1024C167.389 40.0459 167.32 39.9825 167.247 39.9569C167.223 39.9483 167.189 40.0408 167.16 40.087ZM165.948 41.1385C165.951 41.0854 165.901 41.0255 165.874 40.969C165.843 41.0187 165.813 41.07 165.783 41.1197C165.81 41.1762 165.836 41.2344 165.863 41.291C165.894 41.2413 165.946 41.1933 165.948 41.1385ZM166.272 39.7137C166.391 39.6657 166.511 39.6178 166.631 39.5715C166.488 39.4739 166.362 39.479 166.272 39.7137ZM166.221 40.1315C166.215 40.0408 166.21 39.9517 166.203 39.8609C166.147 39.9414 166.049 40.0151 166.221 40.1315ZM165.684 39.4756C165.788 39.4174 165.867 39.1982 165.955 39.0526C165.9 38.8985 165.861 38.7871 165.821 38.6741C165.719 38.8077 165.579 38.9036 165.524 39.0886C165.47 39.2701 165.527 39.5629 165.684 39.4756ZM162.654 40.5169C162.637 40.6573 162.601 40.7857 162.614 40.8954C162.639 41.118 162.703 41.1266 162.764 40.9279C162.782 40.8697 162.804 40.7703 162.791 40.7344C162.76 40.6522 162.707 40.5956 162.655 40.5169H162.654ZM162.765 21.4489C162.765 21.4489 162.769 21.4317 162.772 21.4163L162.765 21.4489ZM164.663 20.9282C164.728 20.995 164.791 21.0584 164.854 21.1235C164.79 21.0567 164.726 20.9916 164.662 20.9248C164.662 20.9248 164.662 20.9265 164.662 20.9282H164.663ZM164.207 22.7453C164.184 22.7076 164.148 22.6049 164.125 22.6134C164.056 22.6408 163.991 22.7128 163.924 22.7659C163.991 22.8172 164.057 22.884 164.127 22.908C164.148 22.9149 164.181 22.8018 164.207 22.7453ZM165.021 21.1475C164.994 21.168 164.967 21.1886 164.94 21.2091C164.952 21.2211 164.965 21.2348 164.978 21.2468C164.992 21.2125 165.006 21.18 165.02 21.1457L165.021 21.1475ZM165.827 20.1987C165.784 20.4299 165.742 20.6628 165.699 20.8957C165.739 20.9026 165.788 20.9402 165.816 20.9094C166.032 20.6782 165.819 20.4316 165.827 20.1987ZM166.176 20.2295C166.061 20.2158 165.944 20.2004 165.829 20.1867C165.829 20.1884 165.829 20.1901 165.829 20.1918C165.946 20.1764 166.044 20.781 166.177 20.2295H166.176ZM168.628 20.3922C168.658 20.286 168.689 20.1781 168.719 20.072C168.648 20.1302 168.461 20.0428 168.628 20.3922ZM171.397 19.7346C171.316 19.6832 171.247 19.6233 171.174 19.6044C171.152 19.5976 171.121 19.702 171.093 19.7551C171.146 19.8253 171.197 19.9452 171.251 19.9486C171.295 19.9521 171.343 19.8185 171.396 19.7329L171.397 19.7346ZM173.03 22.3565C172.926 22.1065 172.822 21.8582 172.716 21.615C172.725 21.925 172.539 22.324 172.828 22.4953C172.882 22.5278 172.962 22.4062 173.03 22.3548V22.3565ZM173.625 21.0361C173.578 20.8358 173.52 20.8529 173.484 21.0858C173.476 21.144 173.496 21.2365 173.52 21.2862C173.53 21.3084 173.581 21.2673 173.612 21.2553C173.618 21.1817 173.639 21.0944 173.625 21.0344V21.0361ZM175.327 19.2773C175.325 19.3304 175.373 19.4314 175.402 19.4349C175.43 19.4383 175.463 19.3458 175.492 19.2961C175.466 19.2396 175.438 19.1814 175.412 19.1249C175.382 19.1746 175.329 19.2225 175.327 19.2756V19.2773ZM174.907 20.5343C174.133 20.4984 173.952 21.2005 174.008 22.5158C174.633 22.1219 174.777 21.4317 174.907 20.5343ZM174.455 24.8021C174.453 24.7148 174.45 24.6274 174.448 24.5401C174.402 24.5949 174.355 24.6514 174.309 24.7062C174.357 24.7388 174.406 24.7696 174.455 24.8021ZM176.761 30.8579C176.728 30.7328 176.693 30.541 176.678 30.5462C176.571 30.5856 176.468 30.6643 176.364 30.7311C176.401 30.9161 176.437 31.0993 176.472 31.2843C176.566 31.1456 176.659 31.0086 176.761 30.8579ZM177.067 35.2815C177.563 35.0057 177.918 34.8071 178.269 34.6119C177.869 34.4731 177.43 34.0929 177.067 35.2815ZM177.863 36.6704C177.73 36.5419 177.64 36.3861 177.553 36.3878C177.371 36.3947 177.212 36.5676 177.192 36.9461C177.182 37.1396 177.162 37.5147 177.38 37.304C177.531 37.1585 177.661 36.9393 177.863 36.6704ZM178.885 37.602C178.798 37.5472 178.725 37.4822 178.648 37.4633C178.621 37.4565 178.585 37.5609 178.554 37.614C178.61 37.6911 178.666 37.823 178.726 37.8298C178.773 37.8367 178.826 37.6928 178.885 37.6003V37.602Z" fill="white"/>
<path d="M140.946 42.0185C140.946 42.0185 140.946 42.031 140.946 42.0372L141.022 42.0544C141.022 42.0544 141.019 42.0544 141.018 42.0528C141.005 42.0404 140.995 42.0279 140.983 42.0154C140.977 42.0201 140.97 42.0232 140.963 42.0279C140.957 42.0248 140.952 42.0232 140.947 42.0201L140.946 42.0185Z" fill="white"/>
<path d="M148.673 19.374C148.32 19.0724 147.758 18.2683 147.616 19.7513C147.551 20.4101 147.385 20.5122 148.552 21.5684C148.647 21.4617 148.741 21.3519 148.842 21.2529C149.583 20.5153 149.245 19.8627 148.673 19.374Z" fill="white"/>
<path d="M157.119 22.0821C157.109 22.0963 157.097 22.1041 157.087 22.1199C157.092 22.1152 157.1 22.1152 157.107 22.1104C157.111 22.101 157.119 22.0947 157.123 22.0852C157.123 22.0852 157.12 22.0837 157.119 22.0821Z" fill="white"/>
<path d="M158.876 21.6288C159.065 21.2174 159.612 20.6607 159.135 20.4798C158.512 20.2432 157.688 20.503 157.038 20.8246C156.618 21.0319 156.497 21.7138 157.118 22.0819C157.61 21.3875 158.284 21.7448 158.876 21.6288Z" fill="white"/>
<path d="M132.62 22.8798C132.949 23.1953 133.179 22.3571 133.08 22.02C132.937 21.5391 132.798 20.9159 132.192 20.769C132.05 21.4927 131.032 21.488 131.219 22.3046C131.347 22.8628 132.139 22.4174 132.62 22.8783V22.8798Z" fill="white"/>
<path d="M109.494 21.1324C109.643 21.635 110.153 20.6809 110.224 20.353C110.385 19.6076 109.717 19.8783 109.426 19.6092C108.884 19.671 108.29 19.8752 108.273 20.653C108.243 21.9489 109.158 19.9958 109.494 21.1324Z" fill="white"/>
<path d="M176.883 18.0822C176.883 18.0822 176.893 18.0742 176.898 18.0662C176.883 18.0662 176.874 18.0535 176.858 18.0551C176.862 18.071 176.861 18.0822 176.865 18.0965C176.871 18.0901 176.879 18.0869 176.885 18.0822H176.883Z" fill="white"/>
<path d="M177.831 18.9613C178.092 18.7803 178.402 18.488 178.181 18.1014C177.803 17.4349 177.332 17.4628 176.897 18.0659C177.37 18.0983 177.005 19.5396 177.831 18.9613Z" fill="white"/>
<path d="M94.4956 22.9589C95.059 22.7702 95.6438 22.5893 95.9681 21.68C95.2283 21.6846 94.5454 21.4295 94.2836 22.4934C94.2538 22.6171 94.4558 22.9713 94.4956 22.9589Z" fill="white"/>
<path d="M93.046 22.1685C92.6761 21.9737 92.1639 22.201 91.7115 22.2474C91.6972 22.2319 91.683 22.2149 91.6688 22.1979C91.6688 22.201 91.6688 22.2025 91.6674 22.2056C91.6674 22.2056 91.7072 22.2443 91.7115 22.2474L91.6688 22.2056C91.7015 22.4592 91.7342 22.7128 91.7655 22.9665C92.1084 22.9711 92.4513 22.9742 92.7927 22.9773C92.9307 22.6742 93.2978 22.3015 93.046 22.1685Z" fill="white"/>
<path d="M178.743 21.6274C179.423 21.7619 179.865 21.2748 180.77 20.8109C179.663 20.5557 179.083 20.582 178.743 21.6274Z" fill="white"/>
<path d="M181.836 22.948L181.884 23.0119C181.894 22.987 181.904 22.9636 181.914 22.9387C181.888 22.9418 181.862 22.9433 181.836 22.948Z" fill="white"/>
<path d="M183.138 21.8949C182.915 21.5269 182.508 21.5547 182.276 22.0449C182.139 22.3325 182.031 22.6387 181.913 22.9403C182.176 22.9016 182.456 22.9063 182.677 22.7655C182.93 22.6032 183.489 22.4733 183.136 21.8965L183.138 21.8949Z" fill="white"/>
<path d="M97.4522 21.8299C97.317 21.7603 97.1804 21.6907 97.0766 21.6366C96.5004 21.5562 96.2969 21.9103 96.3581 22.5243C96.3723 22.6743 96.5288 22.8026 96.6199 22.9402C96.8091 22.467 97.0054 22.0031 97.4522 21.8299Z" fill="white"/>
<path d="M94.268 23.4877C94.2111 23.4568 93.9365 23.7661 93.955 23.8542C94.0887 24.4836 94.5938 24.5146 94.9694 24.7573C95.2881 23.8944 94.709 23.7243 94.268 23.4862V23.4877Z" fill="white"/>
<path d="M180.604 23.548C180.265 23.4923 179.887 23.432 179.509 23.3701C179.713 24.2887 179.739 24.2764 180.604 23.548Z" fill="white"/>
<path d="M112.507 21.117C112.89 20.9345 113.096 20.4474 112.729 20.2062C112.494 20.0531 112.053 20.5139 112.008 21.1278C112.189 21.1278 112.368 21.1835 112.507 21.117Z" fill="white"/>
<path d="M173.66 19.3957C174.122 19.3957 174.585 19.3957 175.047 19.3957C174.586 18.157 174.124 18.1833 173.66 19.3957Z" fill="white"/>
<path d="M128.521 21.5191C128.649 21.465 128.736 21.2608 128.816 21.1572C128.75 20.8479 128.666 20.6129 128.453 20.7474C128.324 20.8294 128.197 21.0521 128.174 21.2315C128.137 21.5268 128.368 21.584 128.521 21.5175V21.5191Z" fill="white"/>
<path d="M151.716 21.9908C151.703 21.4093 151.565 21.2145 151.401 21.3196C151.228 21.4341 151.12 21.7047 150.983 21.9073C151.14 21.9753 151.296 22.0975 151.453 22.096C151.606 22.096 151.76 21.9691 151.716 21.9892V21.9908Z" fill="white"/>
<path d="M180.859 22.2691C180.904 22.164 180.906 21.915 180.856 21.8763C180.441 21.5562 180.318 22.3882 179.948 22.3016C180.257 22.4624 180.564 22.9418 180.857 22.2676L180.859 22.2691Z" fill="white"/>
<path d="M179.863 22.2628C179.856 22.2534 179.876 22.2846 179.876 22.2846C179.903 22.3002 179.926 22.2971 179.95 22.3033C179.922 22.2877 179.892 22.2722 179.863 22.2628Z" fill="white"/>
<path d="M117.899 20.9205C117.995 21.1989 118.089 21.4772 118.184 21.7556C118.185 21.4556 118.184 21.1602 118.184 20.8664C118.089 20.885 117.995 20.902 117.899 20.9205Z" fill="white"/>
<path d="M49.2875 22.2551C49.3188 22.1607 49.2476 22.0154 49.222 21.8932C49.0314 22.0834 48.8393 22.2736 48.6487 22.4623C48.8763 22.4453 49.1538 22.6649 49.2875 22.2551Z" fill="white"/>
<path d="M111.127 20.868C111.072 20.8603 110.972 20.8649 110.962 20.8974C110.927 21.0087 110.922 21.1355 110.907 21.2562C111.002 21.2206 111.097 21.185 111.191 21.1464C111.341 20.9886 111.319 20.8912 111.126 20.868H111.127Z" fill="white"/>
<path d="M196.654 19.6217C196.427 19.549 196.252 19.4222 196.147 19.4809C196.049 19.5382 196.023 19.7933 195.965 19.9603C196.052 20.0021 196.169 20.1088 196.221 20.0732C196.358 19.9804 196.467 19.8243 196.654 19.6201V19.6217Z" fill="white"/>
<path d="M51.8726 21.6752C51.8683 21.5624 51.7687 21.4557 51.7118 21.3459C51.6222 21.4309 51.4941 21.4928 51.4699 21.5933C51.4443 21.7015 51.4884 21.9258 51.5524 21.9613C51.7474 22.0711 51.8825 21.9366 51.8726 21.6752Z" fill="white"/>
<path d="M154.174 19.6757C154.325 19.5891 154.455 19.4391 154.621 19.2922C154.43 19.1422 154.321 18.9983 154.268 19.0262C154.135 19.0958 153.967 19.2148 153.923 19.3649C153.874 19.5288 153.911 19.8241 154.174 19.6757Z" fill="white"/>
<path d="M109.353 22.3155C109.402 22.4996 109.45 22.6836 109.498 22.8676C109.638 22.7532 109.777 22.6388 109.806 22.6156C110.02 22.3279 109.993 22.1934 109.82 22.1918C109.665 22.1918 109.51 22.2707 109.353 22.3155Z" fill="white"/>
<path d="M99.8957 22.1747C99.847 22.2043 99.7984 22.2354 99.7512 22.2649C99.7855 22.2867 99.8199 22.3069 99.8542 22.3286C99.8685 22.2773 99.8814 22.226 99.8957 22.1747Z" fill="white"/>
<path d="M108.717 22.014C108.707 22.1222 108.727 22.2351 108.734 22.3465C108.804 22.3016 108.872 22.2583 108.946 22.2104C108.906 22.1006 108.865 21.9908 108.825 21.881C108.787 21.9258 108.721 21.966 108.717 22.0155V22.014Z" fill="white"/>
<path d="M125.45 22.037C125.552 22.0231 125.65 21.9643 125.751 21.9241C125.686 21.8437 125.62 21.7617 125.556 21.6813C125.478 21.7525 125.398 21.8252 125.319 21.8978C125.363 21.9473 125.411 22.0432 125.45 22.037Z" fill="white"/>
<path d="M104.964 21.205C105.057 21.2143 105.156 21.1231 105.26 21.069C105.2 20.9808 105.148 20.8339 105.085 20.8293C104.993 20.8215 104.894 20.9112 104.798 20.9607C104.853 21.0473 104.903 21.2004 104.963 21.205H104.964Z" fill="white"/>
<path d="M53.0747 21.4246C53.0348 21.3813 52.9836 21.2916 52.9523 21.2993C52.8556 21.3256 52.7659 21.3921 52.6735 21.4431C52.7688 21.4864 52.8613 21.5452 52.958 21.5653C52.9893 21.5715 53.0348 21.4725 53.0747 21.4246Z" fill="white"/>
<path d="M160.586 21.4248C160.488 21.3521 160.397 21.2361 160.303 21.233C160.215 21.2299 160.124 21.3443 160.034 21.4077C160.123 21.4758 160.209 21.5964 160.299 21.598C160.391 21.6011 160.485 21.4897 160.585 21.4232L160.586 21.4248Z" fill="white"/>
<path d="M176.285 19.939C176.242 19.9033 176.198 19.8676 176.155 19.832C176.143 19.832 176.13 19.832 176.117 19.832C176.111 19.8506 176.1 19.8661 176.095 19.8847C176.15 19.9297 176.217 19.9405 176.285 19.939Z" fill="white"/>
<path d="M128.464 23.2293C128.486 23.3144 128.517 23.3964 128.547 23.4799C128.547 23.3639 128.55 23.2479 128.55 23.1304C128.52 23.1644 128.46 23.2092 128.464 23.2293Z" fill="white"/>
<path d="M158.3 18.6953C158.279 18.7542 158.259 18.8147 158.238 18.8736C158.306 18.838 158.375 18.8007 158.443 18.7651C158.395 18.7418 158.347 18.7185 158.299 18.6953H158.3Z" fill="white"/>
<path d="M84.1719 21.6137C84.1333 21.6012 84.0947 21.5888 84.0561 21.5764C84.0561 21.5764 84.0246 21.6152 84.026 21.6152C84.0761 21.6152 84.1247 21.6152 84.1719 21.6137Z" fill="white"/>
<path d="M155.845 21.2918L155.786 21.4204L155.889 21.4297L155.845 21.2918Z" fill="white"/>
<path d="M91.6317 22.1548C91.6445 22.1703 91.6574 22.1842 91.6702 22.1997C91.6816 22.1625 91.6916 22.1238 91.703 22.085L91.6317 22.1548Z" fill="white"/>
<path d="M98.0967 23.3503C98.0753 23.3147 98.0525 23.2775 98.0311 23.2419C98.0311 23.2419 98.0012 23.2713 98.0026 23.2728C98.0354 23.2992 98.0654 23.3255 98.0967 23.3503Z" fill="white"/>
<path d="M91.5009 23.2511C91.5735 23.2944 91.6475 23.3392 91.72 23.3825C91.72 23.2742 91.7172 23.1675 91.7158 23.0593C91.6432 23.1227 91.5721 23.1861 91.4995 23.2495L91.5009 23.2511Z" fill="white"/>
<path d="M91.7443 22.9899L91.773 23.0133C91.7715 22.9977 91.7687 22.9821 91.7672 22.9666C91.75 22.9666 91.7343 22.9666 91.717 22.9666C91.717 22.9977 91.717 23.0305 91.717 23.0616C91.7357 23.0461 91.7543 23.0289 91.7715 23.0133C91.7715 23.0133 91.7572 23.0008 91.7429 22.9899H91.7443Z" fill="white"/>
<path d="M151.352 23.0176L151.402 23.0812C151.409 23.044 151.416 23.0068 151.422 22.9711C151.399 22.9866 151.374 23.0021 151.352 23.0176Z" fill="white"/>
<path d="M151.47 22.702C151.453 22.792 151.437 22.8819 151.42 22.9704C151.487 22.9238 151.554 22.8788 151.622 22.8339C151.571 22.7904 151.52 22.7455 151.47 22.702Z" fill="white"/>
<path d="M128.49 23.5233C128.509 23.5621 128.526 23.6009 128.544 23.6396L128.581 23.5869C128.581 23.5869 128.581 23.5869 128.581 23.5854C128.57 23.5512 128.558 23.514 128.547 23.4799C128.547 23.5063 128.547 23.5342 128.547 23.5621C128.529 23.5497 128.51 23.5373 128.491 23.5249L128.49 23.5233Z" fill="white"/>
<path d="M182.96 23.2744C182.952 23.2915 182.943 23.3071 182.933 23.3242C182.959 23.3398 182.986 23.3554 183.012 23.3726C182.995 23.3398 182.978 23.3087 182.96 23.2759V23.2744Z" fill="white"/>
<path d="M127.538 23.1753L127.437 23.2078L127.521 23.2853L127.538 23.1753Z" fill="white"/>
<path d="M192.965 39.7282C192.928 39.7375 192.889 39.7453 192.852 39.7546L192.878 39.798C192.884 39.7949 192.888 39.7902 192.892 39.7871C192.892 39.7871 192.895 39.7871 192.895 39.7856C192.918 39.767 192.941 39.7484 192.963 39.7298L192.965 39.7282Z" fill="white"/>
<path d="M59.934 20.2209C59.974 20.224 60.0182 20.1386 60.061 20.0937C60.0225 20.0425 59.9868 19.951 59.9454 19.9494C59.9055 19.9463 59.8598 20.0316 59.817 20.0766C59.8555 20.1278 59.8912 20.2193 59.9326 20.2209H59.934Z" fill="white"/>
<path d="M115.613 42.5668C115.696 42.5063 115.78 42.4458 115.863 42.3853C115.74 42.3202 115.599 42.1914 115.613 42.5668Z" fill="white"/>
<path d="M115.862 42.3836C115.888 42.3977 115.915 42.4133 115.938 42.4148L115.942 42.4195C115.931 42.3961 115.92 42.3852 115.908 42.3634C115.904 42.3634 115.899 42.3603 115.895 42.3603C115.885 42.3681 115.874 42.3758 115.864 42.3836H115.862Z" fill="white"/>
<path d="M106.359 20.9315L106.236 20.978L106.341 21.0679L106.359 20.9315Z" fill="white"/>
<path d="M72.5662 20.4706L72.4435 20.4473L72.4863 20.6164L72.5662 20.4706Z" fill="white"/>
<path d="M130.346 20.6597C130.378 20.6644 130.417 20.5977 130.453 20.562C130.423 20.5186 130.395 20.4442 130.363 20.4395C130.33 20.4348 130.291 20.5015 130.256 20.5372C130.286 20.5806 130.313 20.6551 130.346 20.6597Z" fill="white"/>
<path d="M35.847 23.6917C35.7517 23.6777 35.6564 23.6654 35.561 23.6515C35.6051 23.6917 35.6464 23.7582 35.6919 23.7643C35.7417 23.7705 35.7944 23.7195 35.8456 23.6917H35.847Z" fill="white"/>
<path d="M167.363 20.752C167.403 20.6855 167.379 20.4675 167.33 20.4304C166.936 20.1334 166.585 20.435 166.222 20.5819C166.63 20.3669 166.912 21.5159 167.362 20.752H167.363Z" fill="white"/>
<path d="M12.577 23.1367C12.5784 23.1738 12.5813 23.2125 12.5827 23.2496C12.8189 23.2171 13.0565 23.1846 13.2927 23.1506L13.3012 23.1352C13.0593 23.1352 12.8189 23.1352 12.577 23.1352V23.1367Z" fill="white"/>
</g>
<defs>
<clipPath id="clip0_1587_1778">
<rect width="196" height="60" fill="white"/>
</clipPath>
</defs>
</svg>
